<svg width="16" height="16" viewBox="0 0 16 16" fill="none" xmlns="http://www.w3.org/2000/svg">
<path d="M8 0C7.41861 0 6.94737 0.471241 6.94737 1.05263V6.94737H1.05263C0.471241 6.94737 0 7.41861 0 8C0 8.58139 0.471241 9.05263 1.05263 9.05263H6.94737V14.9474C6.94737 15.5288 7.41861 16 8 16C8.58139 16 9.05263 15.5288 9.05263 14.9474V9.05263H14.9474C15.5288 9.05263 16 8.58139 16 8C16 7.41861 15.5288 6.94737 14.9474 6.94737H9.05263V1.05263C9.05263 0.471241 8.58139 0 8 0V0Z" fill="#434343"/>
</svg>
