<svg width="16" height="16" viewBox="0 0 16 16" fill="none" xmlns="http://www.w3.org/2000/svg">
<path d="M11.0474 10.2857C10.3523 11.2108 9.24592 11.8092 7.99984 11.8092C5.89604 11.8092 4.19055 10.1035 4.19055 7.9997C4.19055 5.89588 5.89613 4.19022 7.99984 4.19022C9.24595 4.19022 10.3523 4.78863 11.0474 5.71371V4.19022H11.8092V10.2856C11.8092 11.1254 12.5655 11.6065 13.4486 11.3666C14.5133 11.0774 15.2653 9.8992 15.2377 7.99979C15.2377 4.00233 11.9971 0.761567 7.99981 0.761567C4.00255 0.761567 0.761948 4.00233 0.761948 7.99979C0.761948 11.9972 4.00255 15.238 7.99981 15.238C9.56989 15.238 11.0635 14.7372 12.2988 13.8235L12.7517 14.4362C11.3862 15.446 9.73439 16 7.9996 16C3.58152 16 0 12.4183 0 8C0 3.5817 3.58152 0 7.9996 0C12.4177 0 15.9992 3.5817 15.9992 7.99461C16.0315 10.2149 15.0743 11.7149 13.648 12.1022C12.3093 12.4658 11.0472 11.6632 11.0471 10.2864L11.0474 10.2857ZM7.99984 11.0472C9.68297 11.0472 11.0474 9.68282 11.0474 7.99949C11.0474 6.31616 9.68309 4.95179 7.99984 4.95179C6.3166 4.95179 4.95229 6.31616 4.95229 7.99949C4.95229 9.68282 6.3166 11.0472 7.99984 11.0472Z" fill="#434343"/>
</svg>
