<svg width="20" height="20" viewBox="0 0 20 20" fill="none" xmlns="http://www.w3.org/2000/svg">
<path d="M10 0C9.27326 0 8.68421 0.589051 8.68421 1.31579V8.68421H1.31579C0.589051 8.68421 0 9.27326 0 10C0 10.7267 0.589051 11.3158 1.31579 11.3158H8.68421V18.6842C8.68421 19.4109 9.27326 20 10 20C10.7267 20 11.3158 19.4109 11.3158 18.6842V11.3158H18.6842C19.4109 11.3158 20 10.7267 20 10C20 9.27326 19.4109 8.68421 18.6842 8.68421H11.3158V1.31579C11.3158 0.589051 10.7267 0 10 0V0Z" fill="#0077EE"/>
</svg>
