<svg width="8" height="4" viewBox="0 0 8 4" fill="none" xmlns="http://www.w3.org/2000/svg">
<path d="M4.02554 3.9989C4.10653 3.9939 4.18347 3.96189 4.2442 3.90807L7.87848 0.636856C7.95073 0.572204 7.99427 0.481376 7.99946 0.384586C8.00472 0.287735 7.97113 0.192792 7.90624 0.120715C7.8414 0.0486472 7.75045 0.00541873 7.65362 0.000474578C7.55678 -0.00446941 7.46198 0.0293768 7.3901 0.0944734L4 3.14696L0.609897 0.0944734C0.538027 0.0293784 0.443223 -0.00446957 0.346379 0.000474578C0.249538 0.00541856 0.158597 0.0486472 0.0937639 0.120715C0.0288661 0.192782 -0.00472349 0.287732 0.000536488 0.384586C0.00573335 0.481373 0.0492732 0.572194 0.121522 0.636856L3.7558 3.90807C3.82964 3.97374 3.92705 4.00657 4.02554 3.9989H4.02554Z" fill="#0077EE"/>
</svg>
