<svg width="15" height="20" viewBox="0 0 15 20" fill="none" xmlns="http://www.w3.org/2000/svg">
<path d="M11.7027 20.0005C11.5564 20.0005 11.4112 19.955 11.2896 19.8663L6.19542 16.1481L1.1012 19.8663C0.891763 20.0181 0.613496 20.0426 0.380225 19.9297C0.146965 19.8162 -0.000244141 19.5844 -0.000244141 19.3305V5.93094C-0.000244141 5.0362 0.357791 4.19513 1.00778 3.5624C1.65764 2.92983 2.52212 2.58105 3.44179 2.58105H8.94905C9.86873 2.58105 10.7332 2.9298 11.3834 3.56255C12.0331 4.19513 12.3911 5.0362 12.3911 5.93094V19.3305C12.3911 19.5844 12.2439 19.8162 12.0106 19.9299C11.913 19.9773 11.8076 20.0005 11.7027 20.0005L11.7027 20.0005ZM6.19542 14.6406C6.34063 14.6406 6.48615 14.6855 6.60846 14.7748L11.0143 17.9905V5.93093C11.0143 5.39406 10.7995 4.88932 10.4096 4.50977C10.0196 4.13006 9.501 3.92099 8.94905 3.92099H3.44179C2.88984 3.92099 2.37122 4.13006 1.98154 4.50992C1.59139 4.88933 1.37657 5.39406 1.37657 5.93093V17.9905L5.78238 14.7748C5.90469 14.6855 6.05021 14.6406 6.19542 14.6406Z" fill="#434343"/>
<rect x="8.47644" width="6.52176" height="6.45163" rx="3.22581" fill="#434343"/>
<path d="M11.7373 1.26953C11.8795 1.26953 11.9948 1.38478 11.9948 1.52697V2.96862H13.4364C13.5786 2.96862 13.6938 3.08387 13.6938 3.22606C13.6938 3.36825 13.5786 3.4835 13.4364 3.4835H11.9948V4.92515C11.9948 5.06734 11.8795 5.18258 11.7373 5.18258C11.5951 5.18258 11.4799 5.06734 11.4799 4.92515V3.4835H10.0382C9.89604 3.4835 9.78079 3.36825 9.78079 3.22606C9.78079 3.08387 9.89604 2.96862 10.0382 2.96862H11.4799V1.52697C11.4799 1.38478 11.5951 1.26953 11.7373 1.26953Z" fill="white"/>
</svg>
