<svg width="20" height="20" viewBox="0 0 20 20" fill="none" xmlns="http://www.w3.org/2000/svg">
<path d="M13.6109 5.8335H12.7774V5H12.2219V5.8335H7.77764V5H7.22211V5.8335H6.38907C5.62316 5.8335 5 6.4566 5 7.22249V13.611C5 14.3769 5.62314 15 6.38907 15H13.6109C14.3768 15 15 14.3769 15 13.611V7.22207C14.9995 6.4562 14.3764 5.83358 13.6109 5.83358V5.8335ZM14.444 13.6104C14.444 14.0696 14.0701 14.4434 13.6109 14.4434H6.38907C5.92935 14.4434 5.55553 14.0696 5.55553 13.6104V8.61097H14.444V13.6104ZM14.444 8.05548H5.55553V7.22198C5.55553 6.76229 5.92935 6.38848 6.38907 6.38848H7.22262V6.94398H7.77766V6.38897H12.2219V6.94447H12.7774V6.38897H13.6109C14.0702 6.38897 14.444 6.76229 14.444 7.22196L14.444 8.05548Z" fill="#ADADAD"/>
<circle cx="10" cy="10" r="9.75" stroke="#ADADAD" stroke-width="0.5" stroke-dasharray="2 2"/>
</svg>
