<svg width="14" height="14" viewBox="0 0 14 14" fill="none" xmlns="http://www.w3.org/2000/svg">
<path fill-rule="evenodd" clip-rule="evenodd" d="M8.6639 7L13.6551 2.00881C14.1144 1.54952 14.1153 0.803661 13.6558 0.344251C13.1973 -0.11436 12.4511 -0.115033 11.9912 0.344908L7 5.3361L2.00881 0.344908C1.54952 -0.114376 0.803661 -0.115343 0.344251 0.344251C-0.11436 0.802694 -0.115033 1.54889 0.344908 2.00881L5.3361 7L0.344908 11.9912C-0.114376 12.4505 -0.115343 13.1963 0.344251 13.6557C0.802694 14.1144 1.54889 14.115 2.00881 13.6551L7 8.6639L11.9912 13.6551C12.4505 14.1144 13.1963 14.1153 13.6558 13.6557C14.1144 13.1973 14.115 12.4511 13.6551 11.9912L8.6639 7Z" fill="#434343"/>
</svg>
