<svg width="12" height="12" viewBox="0 0 12 12" fill="none" xmlns="http://www.w3.org/2000/svg">
<path fill-rule="evenodd" clip-rule="evenodd" d="M7.4262 6L11.7044 1.72184C12.098 1.32816 12.0989 0.688852 11.7049 0.295072C11.312 -0.0980232 10.6724 -0.0985995 10.2782 0.295635L6 4.5738L1.72184 0.295635C1.32816 -0.0980367 0.688852 -0.0988651 0.295072 0.295072C-0.0980232 0.688024 -0.0985995 1.32762 0.295635 1.72184L4.5738 6L0.295635 10.2782C-0.0980367 10.6718 -0.0988651 11.3111 0.295072 11.7049C0.688024 12.098 1.32762 12.0986 1.72184 11.7044L6 7.4262L10.2782 11.7044C10.6718 12.098 11.3111 12.0989 11.7049 11.7049C12.098 11.312 12.0986 10.6724 11.7044 10.2782L7.4262 6Z" fill="#0077EE"/>
</svg>
