<svg width="13" height="14" viewBox="0 0 13 14" fill="none" xmlns="http://www.w3.org/2000/svg">
<path d="M8.31675 1.38234H9.75051H12.0343H12.5578L12.1166 0.941168V2.37498V4.6588V5.18233C12.1166 5.41321 12.3196 5.6338 12.5578 5.6235C12.7975 5.6132 12.9989 5.42938 12.9989 5.18233V3.74852V1.4647V0.941168C12.9989 0.702933 12.7975 0.5 12.5578 0.5H11.124H8.84026H8.31675C8.08587 0.5 7.86529 0.702941 7.87559 0.941168C7.88588 1.18087 8.0697 1.38234 8.31675 1.38234Z" fill="#434343"/>
<path d="M8.11001 6.017L8.58499 5.542C8.96293 5.16406 9.34232 4.78466 9.72026 4.40671L11.0981 3.02878C11.4937 2.63319 11.8893 2.2376 12.2849 1.84202C12.4775 1.64937 12.6746 1.45966 12.8643 1.2626C12.8672 1.25966 12.8702 1.25672 12.8731 1.25378C13.0363 1.09055 13.0481 0.790536 12.8731 0.630241C12.6966 0.468478 12.4231 0.455242 12.2496 0.630241L11.7746 1.10524C11.3967 1.48318 11.0173 1.86258 10.6393 2.24053L9.26144 3.61846C8.86586 4.01405 8.47029 4.40964 8.07471 4.80522C7.88207 4.99787 7.68502 5.18758 7.49531 5.38464C7.49237 5.38758 7.48943 5.39052 7.48649 5.39346C7.32326 5.55669 7.3115 5.85671 7.48649 6.017C7.66148 6.17876 7.93501 6.19053 8.11001 6.017Z" fill="#434343"/>
<path d="M4.68244 12.6175H3.24867H0.964917H0.441399L0.882553 13.0587V11.6248V9.34102V8.81749C0.882553 8.58661 0.679618 8.36602 0.441399 8.37632C0.2017 8.38662 0.000244141 8.57044 0.000244141 8.81749V10.2513V12.5351V13.0587C0.000244141 13.2969 0.201708 13.4998 0.441399 13.4998H1.87516H4.15892H4.68244C4.91331 13.4998 5.13389 13.2969 5.12359 13.0587C5.1133 12.8189 4.92948 12.6175 4.68244 12.6175Z" fill="#434343"/>
<path d="M4.8902 7.98222L4.41521 8.45721C4.03728 8.83516 3.65789 9.21456 3.27995 9.59251L1.90206 10.9704C1.50649 11.366 1.11091 11.7616 0.715335 12.1572C0.522693 12.3499 0.325647 12.5396 0.135939 12.7366C0.132998 12.7396 0.130057 12.7425 0.127116 12.7454C-0.0361132 12.9087 -0.0478775 13.2087 0.127116 13.369C0.303581 13.5307 0.577091 13.544 0.750638 13.369L1.22562 12.894C1.60356 12.516 1.98294 12.1366 2.36088 11.7587L3.73877 10.3808C4.13435 9.98517 4.52992 9.58958 4.9255 9.19399C5.11814 9.00135 5.31519 8.81164 5.50489 8.61458C5.50784 8.61164 5.51078 8.6087 5.51372 8.60576C5.67695 8.44252 5.68871 8.14251 5.51372 7.98222C5.33872 7.82045 5.0652 7.80869 4.8902 7.98222Z" fill="#434343"/>
</svg>
