<svg width="8" height="8" viewBox="0 0 8 8" fill="none" xmlns="http://www.w3.org/2000/svg">
<path d="M7.95727 7.3884C7.95727 7.36234 8.42188 4.75954 6.28708 2.92455C6.19914 2.84648 5.34525 2.07868 3.59972 2.02656V0.256634C3.59832 0.15251 3.53709 0.05928 3.44415 0.0196148C3.3513 -0.0200551 3.24452 0.00154973 3.1727 0.074446L0.221618 3.09372C0.0797127 3.24024 0 3.43922 0 3.64675C0 3.85437 0.0797127 4.05335 0.221618 4.19988L3.1727 7.27121C3.24452 7.3441 3.3513 7.36571 3.44415 7.32604C3.53709 7.28637 3.59832 7.19314 3.59972 7.08902V5.24102C4.31556 5.17593 5.96058 5.33216 7.21636 7.53148L7.4173 7.86982L7.41722 7.86991C7.46137 7.94916 7.54239 7.99855 7.63069 8H7.66835C7.77531 7.98529 7.86124 7.9015 7.88182 7.79184L7.95727 7.3884ZM7.49265 6.98498C6.24941 5.03286 4.71738 4.70751 3.83834 4.70751C3.66183 4.70615 3.48551 4.71922 3.31091 4.74655C3.18714 4.76606 3.09604 4.87709 3.09744 5.0069V6.45137L0.573326 3.83553C0.477584 3.73432 0.477584 3.57237 0.573326 3.47114L3.09744 0.881329V2.29994C3.09744 2.36893 3.12389 2.43511 3.17102 2.48395C3.21815 2.53279 3.282 2.5602 3.34858 2.5602H3.39877C5.1443 2.5602 5.93544 3.31502 5.948 3.32801H5.96061C6.47427 3.77084 6.88054 4.3324 7.14658 4.96758C7.4127 5.60267 7.53121 6.29367 7.49269 6.98498L7.49265 6.98498Z" fill="#0077EE"/>
</svg>
