<svg width="14" height="14" viewBox="0 0 14 14" fill="none" xmlns="http://www.w3.org/2000/svg">
<rect width="14" height="14" rx="2" fill="#0077EE"/>
<path d="M5.36328 6.66797V8.75C5.29297 8.85417 5.18099 8.97135 5.02734 9.10156C4.8737 9.22917 4.66146 9.34115 4.39062 9.4375C4.1224 9.53125 3.77604 9.57812 3.35156 9.57812C3.00521 9.57812 2.6862 9.51823 2.39453 9.39844C2.10547 9.27604 1.85417 9.09896 1.64062 8.86719C1.42969 8.63281 1.26562 8.34896 1.14844 8.01562C1.03385 7.67969 0.976562 7.29948 0.976562 6.875V6.43359C0.976562 6.00911 1.02604 5.63021 1.125 5.29688C1.22656 4.96354 1.375 4.68099 1.57031 4.44922C1.76562 4.21484 2.00521 4.03776 2.28906 3.91797C2.57292 3.79557 2.89844 3.73438 3.26562 3.73438C3.70052 3.73438 4.0638 3.8099 4.35547 3.96094C4.64974 4.10938 4.87891 4.3151 5.04297 4.57812C5.20964 4.84115 5.31641 5.14062 5.36328 5.47656H4.60938C4.57552 5.27083 4.50781 5.08333 4.40625 4.91406C4.30729 4.74479 4.16536 4.60938 3.98047 4.50781C3.79557 4.40365 3.55729 4.35156 3.26562 4.35156C3.0026 4.35156 2.77474 4.39974 2.58203 4.49609C2.38932 4.59245 2.23047 4.73047 2.10547 4.91016C1.98047 5.08984 1.88672 5.30729 1.82422 5.5625C1.76432 5.81771 1.73438 6.10547 1.73438 6.42578V6.875C1.73438 7.20312 1.77214 7.49609 1.84766 7.75391C1.92578 8.01172 2.03646 8.23177 2.17969 8.41406C2.32292 8.59375 2.49349 8.73047 2.69141 8.82422C2.89193 8.91797 3.11328 8.96484 3.35547 8.96484C3.6237 8.96484 3.84115 8.94271 4.00781 8.89844C4.17448 8.85156 4.30469 8.79688 4.39844 8.73438C4.49219 8.66927 4.5638 8.60807 4.61328 8.55078V7.27734H3.29688V6.66797H5.36328ZM7.42188 3.8125V9.5H6.66797V3.8125H7.42188ZM9.54688 3.8125V9.5H8.79297V3.8125H9.54688ZM11.9297 6.37109V6.98828H9.38281V6.37109H11.9297ZM12.3164 3.8125V4.42969H9.38281V3.8125H12.3164Z" fill="white"/>
</svg>
