<svg width="12" height="16" viewBox="0 0 12 16" fill="none" xmlns="http://www.w3.org/2000/svg">
<path d="M10.5 5.53867H9.6V3.74255C9.6 1.71567 8.025 0.0310891 6.04875 0.000320443C4.04625 -0.0266021 2.4 1.64644 2.4 3.69255V5.53867H1.5C0.675 5.53867 0 6.23097 0 7.0771V14.4616C0 15.3077 0.675 16 1.5 16H10.5C11.325 16 12 15.3077 12 14.4616V7.0771C12 6.23097 11.325 5.53867 10.5 5.53867ZM6.525 10.3386V12.9847C6.525 13.2731 6.3075 13.5231 6.02625 13.5385C5.72625 13.5539 5.475 13.3077 5.475 13.0001V10.3386C5.04375 10.1232 4.75875 9.65397 4.80375 9.11937C4.85625 8.52323 5.3325 8.04631 5.91375 8.00401C6.615 7.95401 7.2 8.52323 7.2 9.2309C7.2 9.71936 6.92625 10.1386 6.525 10.3386ZM8.55 5.53867H3.45V3.69255C3.45 2.99641 3.71625 2.34258 4.2 1.84644C4.68375 1.35029 5.32125 1.07722 6 1.07722C6.67875 1.07722 7.31625 1.35029 7.8 1.84644C8.28375 2.34258 8.55 2.99641 8.55 3.69255V5.53867Z" fill="#434343"/>
</svg>
