<svg width="8" height="12" viewBox="0 0 8 12" fill="none" xmlns="http://www.w3.org/2000/svg">
<path d="M4 8.43262C4.60602 8.43262 5.18718 8.20486 5.61573 7.7994C6.04419 7.39403 6.28492 6.84419 6.28492 6.27082V2.1618C6.28492 1.58843 6.04419 1.03859 5.61573 0.633217C5.18718 0.227758 4.60602 0 4 0C3.39398 0 2.81283 0.227758 2.38428 0.633217C1.95582 1.03859 1.71509 1.58843 1.71509 2.1618V6.27061C1.715 6.84398 1.95573 7.3939 2.38419 7.79936C2.81274 8.20491 3.39398 8.43266 4 8.43266V8.43262ZM2.47655 6.27076V2.16174C2.47655 1.6468 2.7669 1.17095 3.23827 0.913473C3.70963 0.655995 4.29035 0.655995 4.76173 0.913473C5.23309 1.17095 5.52346 1.6468 5.52346 2.16174V6.27054C5.52346 6.78548 5.23311 7.26133 4.76173 7.51881C4.29035 7.77628 3.70965 7.77628 3.23827 7.51881C2.7669 7.26133 2.47655 6.78548 2.47655 6.27054V6.27076Z" fill="#434343"/>
<path d="M7.61915 3.92875C7.51812 3.92867 7.42116 3.96658 7.34968 4.03422C7.27821 4.10185 7.23812 4.19359 7.23821 4.28917V6.19507C7.23821 7.88604 5.78562 9.26184 3.99996 9.26184C2.21419 9.26184 0.761715 7.8861 0.761715 6.19507V4.28917C0.761715 4.16043 0.689082 4.04148 0.571239 3.97713C0.453395 3.91279 0.308225 3.91277 0.190386 3.97713C0.0725447 4.0415 0 4.16044 0 4.28917V6.19507C0 8.16167 1.59156 9.78297 3.61919 9.96511V11.2794H2.09573C1.95967 11.2794 1.83387 11.348 1.76584 11.4595C1.6978 11.571 1.69781 11.7084 1.76584 11.8199C1.83387 11.9314 1.95968 12.0001 2.09573 12.0001H5.90427C6.04033 12.0001 6.16606 11.9314 6.23407 11.8199C6.3021 11.7084 6.3021 11.571 6.23407 11.4595C6.16604 11.348 6.04032 11.2794 5.90427 11.2794H4.38081V9.96485C6.40835 9.78271 8 8.16164 8 6.19482V4.28915C8 4.19356 7.95992 4.1019 7.88853 4.03426C7.81713 3.96662 7.72026 3.92871 7.61922 3.92871L7.61915 3.92875Z" fill="#434343"/>
</svg>
