<svg width="14" height="14" viewBox="0 0 14 14" fill="none" xmlns="http://www.w3.org/2000/svg">
<path d="M12.341 0H1.65863C0.744015 0 0 0.744016 0 1.65863V12.3414C0 13.256 0.744015 14 1.65863 14H12.3414C13.256 14 14 13.256 14 12.3414L13.9999 1.65863C13.9999 0.744016 13.2558 0 12.3412 0H12.341ZM9.2143 4.11265C9.2143 5.01203 8.48272 5.74346 7.5835 5.74346C6.68458 5.74346 5.95299 5.01203 5.95299 4.11265C5.95299 3.21343 6.68442 2.482 7.5835 2.482C8.48272 2.482 9.2143 3.21358 9.2143 4.11265ZM9.95995 6.84111L8.24532 7.83364L10.1251 8.92197C10.2837 9.01364 10.3377 9.21652 10.2459 9.37512C10.1843 9.48146 10.0731 9.54069 9.95845 9.54069C9.90203 9.54069 9.84486 9.52633 9.79259 9.49597L5.19656 6.83503L0.663472 9.10142V8.35949L5.0597 6.16149C5.15937 6.11173 5.27769 6.11484 5.37425 6.17126L7.58347 7.45033L9.7927 6.17126C9.89488 6.11188 10.0211 6.11173 10.124 6.17038L13.3362 8.01144V8.77604L9.95995 6.84111Z" fill="#0077EE"/>
</svg>
