<svg width="17" height="15" viewBox="0 0 17 15" fill="none" xmlns="http://www.w3.org/2000/svg">
<path d="M16.8928 7.17741C16.4253 6.55414 15.248 5.22099 13.4301 4.2168L11.7335 5.91346C11.9931 6.38094 12.1316 6.91762 12.1316 7.50627C12.1316 9.35884 10.6254 10.8477 8.7902 10.8477C8.21886 10.8477 7.68216 10.7092 7.19739 10.4495L6.05469 11.5922C6.88569 11.8346 7.786 11.9904 8.79017 11.9904C13.3262 11.9904 16.0963 8.87404 16.91 7.83525C17.0312 7.64492 17.0312 7.36789 16.8927 7.17744L16.8928 7.17741Z" fill="#747474"/>
<path d="M5.82858 9.08213C5.56893 8.61465 5.4304 8.07797 5.4304 7.5066C5.4304 5.65403 6.91934 4.16516 8.77185 4.16516C9.34318 4.16516 9.87989 4.30368 10.3647 4.56333L11.5074 3.42063C10.6764 3.17826 9.77604 3.02246 8.77188 3.02246C4.23583 3.02246 1.46572 6.13883 0.651999 7.17762C0.496209 7.36807 0.496209 7.64511 0.651999 7.83555C1.11949 8.45883 2.29672 9.79197 4.11463 10.7962L5.82858 9.08213Z" fill="#747474"/>
<path d="M6.34375 7.50693C6.34375 7.81851 6.39568 8.13021 6.51693 8.38987L9.65062 5.25619C9.37358 5.15233 9.07928 5.08301 8.76767 5.08301C7.43441 5.08313 6.34377 6.17377 6.34377 7.50691L6.34375 7.50693Z" fill="#747474"/>
<path d="M8.77371 9.93075C10.1069 9.93075 11.1975 8.83999 11.1975 7.50696C11.1975 7.19539 11.1456 6.90094 11.0243 6.62402L7.89062 9.75771C8.15039 9.86157 8.46208 9.93077 8.77366 9.93077L8.77371 9.93075Z" fill="#747474"/>
<path d="M15.523 0.754769C15.2979 0.52966 14.9344 0.52966 14.7093 0.754769L2.03602 13.428C1.81091 13.6531 1.81091 14.0166 2.03602 14.2417C2.15727 14.363 2.29567 14.4149 2.45157 14.4149C2.60736 14.4149 2.74587 14.363 2.86711 14.2417L15.5404 1.56849C15.7481 1.36065 15.7481 0.979747 15.523 0.754769H15.523Z" fill="#747474"/>
</svg>
