<svg width="12" height="14" viewBox="0 0 12 14" fill="none" xmlns="http://www.w3.org/2000/svg">
<path d="M0 12H12V10.5C11.382 10.3501 10.2833 9.60009 10.2833 5.85002C10.2833 2.99995 8.30907 2.01667 7.03863 1.66667C7.14161 1.49996 7.19311 1.31661 7.19311 1.11667C7.19311 0.500032 6.66095 0 6.02578 0C5.39062 0 4.85846 0.500032 4.85846 1.11667C4.85846 1.31664 4.90996 1.49998 5.01294 1.66667C3.74253 1.99998 1.76831 3.00004 1.76831 5.85002C1.76831 9.60003 0.669595 10.35 0.0515693 10.5L0.0514495 12H0Z" fill="#434343"/>
<path d="M5.99031 13.9999C6.81431 13.9999 7.50107 13.3499 7.62118 12.5H4.35938C4.4796 13.35 5.16624 13.9999 5.99025 13.9999H5.99031Z" fill="#434343"/>
</svg>
