<svg width="102" height="102" viewBox="0 0 102 102" fill="none" xmlns="http://www.w3.org/2000/svg">
<path d="M101.625 38.6896L86.6033 27.1366V18.2842C86.6033 16.6926 85.3084 15.3976 83.7168 15.3976H71.3418L51.5873 0.198949C51.2409 -0.0663165 50.7601 -0.0663165 50.4154 0.198949L30.6575 15.3976H18.2833C16.6917 15.3976 15.3967 16.6925 15.3967 18.2842V27.1366L0.376086 38.6914C0.0986011 38.9672 0 39.3092 0 39.4541V101.038C0 101.57 0.43106 102.001 0.962463 102.001H101.038C101.569 102.001 102 101.57 102 101.038V39.4541C102 39.3092 101.898 38.9628 101.625 38.6897L101.625 38.6896ZM100.075 99.0832L62.5849 70.2468L100.075 41.4082V99.0832ZM39.4158 70.2468L1.9256 99.0832V41.406L39.4158 70.2468ZM51.001 63.7636L98.2105 100.077H3.74236L51.001 63.7636ZM99.4592 39.4552L86.6034 49.3434V29.5654L99.4592 39.4552ZM51.001 2.17945L68.1867 15.3992H33.8149L51.001 2.17945ZM18.2845 17.3232H83.7175C84.2489 17.3232 84.68 17.7542 84.68 18.2856V50.8257L61.0082 69.034L51.5878 61.7864C51.2413 61.5211 50.7606 61.5211 50.4159 61.7864L40.9927 69.034L17.321 50.8257V18.2856C17.321 17.7542 17.752 17.3232 18.2834 17.3232H18.2845ZM15.398 29.5656V49.3436L2.54213 39.4554L15.398 29.5656Z" fill="#434343"/>
<path d="M50.9985 57.7345C60.5481 57.7345 68.3193 49.9633 68.3193 40.4137C68.3193 39.8823 67.8882 39.4513 67.3568 39.4513C66.8254 39.4513 66.3944 39.8823 66.3944 40.4137C66.3944 48.9031 59.4869 55.8097 50.9984 55.8097C42.509 55.8097 35.6025 48.9023 35.6025 40.4137C35.6025 31.9243 42.5099 25.0178 50.9984 25.0178C54.4722 25.0178 57.7497 26.1452 60.4783 28.2821C60.8963 28.6093 61.5019 28.536 61.8291 28.1189C62.1563 27.701 62.083 27.0954 61.6659 26.7682C58.5944 24.3632 54.905 23.0938 50.9985 23.0938C41.449 23.0938 33.6777 30.865 33.6777 40.4146C33.6777 49.9632 41.449 57.7345 50.9985 57.7345L50.9985 57.7345Z" fill="#434343"/>
<path d="M43.548 39.9226C43.1728 39.5474 42.5629 39.5474 42.1877 39.9226C41.8124 40.2978 41.8124 40.9077 42.1877 41.2829L49.4878 48.583C49.6763 48.7715 49.9223 48.864 50.1693 48.864C50.4154 48.864 50.6623 48.7698 50.8508 48.583L66.087 33.3468C66.4622 32.9716 66.4622 32.3617 66.087 31.9865C65.7118 31.6113 65.1018 31.6113 64.7266 31.9865L50.172 46.5412L43.548 39.9226Z" fill="#434343"/>
</svg>
