<svg width="14" height="14" viewBox="0 0 14 14" fill="none" xmlns="http://www.w3.org/2000/svg">
<circle cx="7" cy="7" r="7" fill="#0077EE"/>
<path d="M7 3.5C6.84531 3.5 6.72002 3.62539 6.72002 3.77998V6.72002H3.77998C3.62529 6.72002 3.5 6.84541 3.5 7C3.5 7.15469 3.62539 7.27998 3.77998 7.27998H6.72002V10.22C6.72002 10.3747 6.84541 10.5 7 10.5C7.15469 10.5 7.27998 10.3746 7.27998 10.22V7.27998H10.22C10.3747 7.27998 10.5 7.15459 10.5 7C10.5 6.84531 10.3746 6.72002 10.22 6.72002H7.27998V3.77998C7.27998 3.62529 7.15459 3.5 7 3.5Z" fill="white"/>
</svg>
