<svg width="18" height="14" viewBox="0 0 18 14" fill="none" xmlns="http://www.w3.org/2000/svg">
<path d="M1.97655 13.9999C2.42373 13.999 2.85747 13.819 3.20698 13.4896C3.55649 13.1599 3.80113 12.7 3.90095 12.1851H14.0986C14.2439 12.9374 14.6945 13.5565 15.3026 13.8384C15.9107 14.1205 16.5974 14.0292 17.1371 13.5946C17.6769 13.1601 18 12.4383 18 11.6666C18 10.8949 17.6769 10.1732 17.1371 9.73859C16.5974 9.30384 15.9107 9.21271 15.3026 9.49463C14.6945 9.77676 14.2439 10.3956 14.0986 11.1481H7.48386C7.56546 11.0071 7.63374 10.8559 7.68778 10.6974L9.99857 3.67844C10.0779 3.4343 10.2183 3.22451 10.4009 3.07695C10.5836 2.9292 10.8 2.85071 11.0212 2.8518H14.0987C14.244 3.6043 14.6945 4.22315 15.3026 4.50528C15.9107 4.78721 16.5975 4.69607 17.1372 4.26132C17.6769 3.82675 18 3.10497 18 2.3333C18 1.56163 17.677 0.839868 17.1372 0.405282C16.5975 -0.0292887 15.9107 -0.120599 15.3026 0.161504C14.6945 0.44344 14.244 1.06248 14.0987 1.8148H11.0212C10.6229 1.81281 10.2334 1.95405 9.90458 2.21971C9.57574 2.48537 9.32313 2.86314 9.18032 3.30245L6.86953 10.3219C6.79023 10.5659 6.64984 10.7757 6.46719 10.9234C6.28455 11.071 6.06806 11.1493 5.84671 11.1482H3.90119C3.79035 10.574 3.49994 10.0707 3.08811 9.73889C2.67629 9.40721 2.17369 9.27157 1.68074 9.35947C1.18794 9.44718 0.741348 9.75191 0.430597 10.2123C0.11997 10.6728 -0.0319054 11.2549 0.00560114 11.8419C0.0431089 12.4292 0.267085 12.9778 0.63267 13.3781C0.998255 13.7783 1.47835 14.0005 1.97683 14L1.97655 13.9999ZM16.0229 10.3703C16.3139 10.3703 16.593 10.5069 16.7989 10.7499C17.0047 10.9932 17.1203 11.3229 17.1203 11.6666C17.1203 12.0104 17.0047 12.3401 16.7989 12.5832C16.593 12.8264 16.3139 12.963 16.0229 12.963C15.7319 12.963 15.4528 12.8264 15.247 12.5832C15.0411 12.3401 14.9255 12.0104 14.9255 11.6666C14.9258 11.3229 15.0416 10.9935 15.2473 10.7505C15.4531 10.5074 15.732 10.3707 16.0229 10.3704L16.0229 10.3703ZM16.0229 1.03697C16.3139 1.03697 16.593 1.1735 16.7989 1.41674C17.0047 1.6598 17.1203 1.98947 17.1203 2.33327C17.1203 2.67707 17.0047 3.00675 16.7989 3.24999C16.593 3.49305 16.3139 3.62958 16.0229 3.62958C15.7319 3.62958 15.4528 3.49305 15.247 3.24999C15.0411 3.00675 14.9255 2.67707 14.9255 2.33327C14.9258 1.98966 15.0416 1.66017 15.2473 1.41711C15.4531 1.17405 15.732 1.03734 16.0229 1.03697L16.0229 1.03697ZM1.97655 10.3703C2.26758 10.3703 2.54667 10.5069 2.75243 10.7499C2.95834 10.9932 3.07393 11.3229 3.07393 11.6666C3.07393 12.0104 2.95834 12.3401 2.75243 12.5832C2.54667 12.8264 2.26759 12.963 1.97655 12.963C1.68551 12.963 1.40643 12.8264 1.20052 12.5832C0.994758 12.3401 0.879174 12.0104 0.879174 11.6666C0.879481 11.3229 0.995217 10.9935 1.20097 10.7505C1.40673 10.5074 1.6855 10.3707 1.97654 10.3704L1.97655 10.3703Z" fill="#434343"/>
</svg>
