<svg width="14" height="14" viewBox="0 0 14 14" fill="none" xmlns="http://www.w3.org/2000/svg">
<path d="M7.00024 0C3.13426 0 0.000244141 3.13401 0.000244141 7C0.000244141 10.866 3.13426 14 7.00024 14C10.8662 14 14.0002 10.866 14.0002 7C14.0002 3.13401 10.8662 0 7.00024 0ZM4.23283 3.90698C4.86213 3.90698 5.37234 4.41718 5.37234 5.04648C5.37234 5.67579 4.86213 6.18599 4.23283 6.18599C3.60353 6.18599 3.09333 5.67579 3.09333 5.04648C3.09333 4.41718 3.60353 3.90698 4.23283 3.90698ZM9.76771 3.90698C10.397 3.90698 10.9072 4.41718 10.9072 5.04648C10.9072 5.67579 10.397 6.18599 9.76771 6.18599C9.13841 6.18599 8.62821 5.67579 8.62821 5.04648C8.62821 4.41718 9.13841 3.90698 9.76771 3.90698ZM10.5766 8.60262C10.7054 8.59421 10.8271 8.6628 10.8866 8.77749C10.9461 8.89206 10.9323 9.03106 10.8514 9.13167C10.0064 10.3956 8.59664 11.2326 7.00019 11.2326C5.40374 11.2326 3.99408 10.3956 3.14903 9.13167C3.08385 9.03708 3.07329 8.91513 3.12132 8.81066C3.16935 8.7063 3.26882 8.63488 3.38306 8.62295C3.50445 8.61103 3.62221 8.66803 3.68829 8.77046C4.4214 9.86706 5.63007 10.5815 7.00021 10.5815C8.37036 10.5815 9.5789 9.86706 10.3121 8.77046C10.3658 8.67292 10.4655 8.60966 10.5766 8.60262Z" fill="#0077EE"/>
</svg>
