<svg width="14" height="14" viewBox="0 0 14 14" fill="none" xmlns="http://www.w3.org/2000/svg">
<path d="M12.614 4.52893H12.5931C11.7678 4.52283 10.9791 4.1878 10.402 3.59799C9.8122 3.02085 9.47716 2.23218 9.47107 1.40694C9.47318 0.916621 9.59318 0.434041 9.82111 0H3.15C2.31492 0.00117186 1.5144 0.333511 0.924031 0.924031C0.33351 1.51443 0.00117 2.31492 0 3.15V10.8501V10.85C0.00117186 11.6851 0.33351 12.4856 0.924031 13.076C1.51443 13.6665 2.31492 13.9988 3.15 14H10.8501H10.85C11.6851 13.9988 12.4856 13.6665 13.076 13.076C13.6665 12.4856 13.9988 11.6851 14 10.85V4.17889C13.5734 4.40658 13.0977 4.52683 12.614 4.52893L12.614 4.52893ZM4.55002 6.99994H4.54311C4.3535 6.99396 4.20222 6.83963 4.20009 6.6499C4.20009 6.27478 4.40013 5.92813 4.72509 5.74063C5.04993 5.55301 5.45013 5.55301 5.77509 5.74063C6.09993 5.92813 6.30009 6.27478 6.30009 6.6499C6.30103 6.74306 6.26435 6.83259 6.19861 6.89845C6.13275 6.96431 6.04322 7.00088 5.95005 6.99994C5.75704 6.99935 5.60061 6.84302 5.60001 6.6499C5.60903 6.55462 5.57505 6.46029 5.50743 6.39255C5.4397 6.32494 5.34536 6.29095 5.25009 6.29998C5.15388 6.29248 5.05931 6.32787 4.99181 6.39678C4.92419 6.46568 4.89067 6.56096 4.90005 6.65693C4.89407 6.84654 4.73973 6.9977 4.55001 6.99995L4.55002 6.99994ZM9.05813 8.1199H9.05825C8.92793 8.75716 8.50981 9.29809 7.92598 9.58486C7.34203 9.8715 6.65836 9.8715 6.07441 9.58486C5.49058 9.2981 5.07247 8.75716 4.94215 8.1199C4.92363 8.02897 4.94192 7.93439 4.99313 7.85693C5.04434 7.77947 5.12426 7.72545 5.2152 7.70693C5.40469 7.66826 5.58951 7.79049 5.62818 7.97998C5.71501 8.40478 5.99382 8.7655 6.38298 8.95663C6.77229 9.14777 7.22814 9.14777 7.61742 8.95663C8.00661 8.7655 8.2854 8.40478 8.37222 7.97998C8.41089 7.79049 8.5957 7.66825 8.7852 7.70693C8.97469 7.7456 9.09681 7.93052 9.05825 8.11991L9.05813 8.1199ZM9.45023 6.99994C9.2571 6.99935 9.10079 6.84302 9.10019 6.6499C9.10921 6.55462 9.07523 6.46029 9.00749 6.39255C8.93988 6.32494 8.84554 6.29095 8.75015 6.29998C8.65406 6.29248 8.55949 6.32787 8.49187 6.39678C8.42437 6.46568 8.39074 6.56096 8.40023 6.65693C8.39413 6.84654 8.23991 6.9977 8.05019 6.99995H8.04316C7.85355 6.99398 7.70238 6.83964 7.70013 6.64991C7.70013 6.27479 7.90029 5.92814 8.22514 5.74064C8.5501 5.55302 8.9503 5.55302 9.27514 5.74064C9.6001 5.92814 9.80014 6.27479 9.80014 6.64991C9.80108 6.74308 9.76451 6.83261 9.69865 6.89847C9.63279 6.96433 9.54326 7.00089 9.45022 6.99995L9.45023 6.99994ZM13.8953 3.35283L10.6613 0.10473C10.6384 0.0843394 10.6123 0.0678151 10.5842 0.0557461C10.3122 0.453487 10.1682 0.924817 10.1712 1.40668C10.1818 2.04583 10.4403 2.65579 10.8923 3.10765C11.3442 3.55963 11.9541 3.81817 12.5933 3.8287C13.0764 3.84077 13.5504 3.69593 13.9442 3.41572C13.9301 3.39299 13.9137 3.37189 13.8952 3.35267L13.8953 3.35283Z" fill="#0077EE"/>
</svg>
