<svg width="29" height="20" viewBox="0 0 29 20" fill="none" xmlns="http://www.w3.org/2000/svg">
<path d="M1.42643 6.61538L14.7263 11.9485C14.8122 11.9823 14.905 12.0006 14.9961 12.0006C15.0889 12.0006 15.182 11.9823 15.2686 11.9485L28.5684 6.61538C28.8265 6.51152 28.9958 6.26909 28.9958 6.00062C28.9958 5.73216 28.8265 5.49035 28.5684 5.38587L15.2686 0.0527794C15.0944 -0.0175931 14.8994 -0.0175931 14.7263 0.0527794L1.42643 5.38587C1.16569 5.48973 0.996094 5.73216 0.996094 6.00062C0.996419 6.26909 1.16569 6.5109 1.42643 6.61538Z" fill="#434343"/>
<path d="M1.42547 10.6149L14.7253 15.948C14.8112 15.9818 14.904 16.0001 14.9952 16.0001C15.0879 16.0001 15.181 15.9818 15.2676 15.948L28.5674 10.6149C28.9239 10.4717 29.0915 10.0811 28.9402 9.74159C28.7917 9.40119 28.3806 9.24246 28.0252 9.38569L14.9953 14.6093L1.968 9.38569C1.61157 9.24246 1.20141 9.40119 1.05002 9.74159C0.901584 10.081 1.0702 10.4717 1.42566 10.6149" fill="#434343"/>
<path d="M28.0252 13.3857L14.9953 18.6097L1.968 13.3857C1.61157 13.2425 1.20141 13.4012 1.05002 13.7416C0.901584 14.081 1.0702 14.4717 1.42566 14.6149L14.7255 19.948C14.8114 19.9827 14.9042 20.0001 14.9953 20.0001C15.0881 20.0001 15.1812 19.9827 15.2678 19.948L28.5676 14.6149C28.9241 14.4717 29.0917 14.0811 28.9403 13.7416C28.7916 13.4012 28.3808 13.2428 28.0254 13.3857" fill="#434343"/>
</svg>
