<svg width="18" height="17" viewBox="0 0 18 17" fill="none" xmlns="http://www.w3.org/2000/svg">
<path d="M8.77437 1.21436C8.86493 1.02458 9.13507 1.02458 9.22563 1.21436L10.9695 4.86898C11.2246 5.40362 11.7329 5.7729 12.3202 5.85032L16.3349 6.37952C16.5433 6.407 16.6268 6.66392 16.4743 6.80869L13.5375 9.59657C13.1078 10.0044 12.9137 10.6019 13.0215 11.1844L13.7588 15.1661C13.7971 15.3729 13.5786 15.5316 13.3937 15.4313L9.83478 13.4997C9.31413 13.2171 8.68587 13.2171 8.16522 13.4997L4.60625 15.4313C4.42144 15.5316 4.20289 15.3729 4.24118 15.1661L4.97847 11.1844C5.08633 10.6019 4.89218 10.0044 4.46255 9.59657L1.52569 6.80869C1.37319 6.66392 1.45666 6.407 1.66514 6.37952L5.67978 5.85031C6.26709 5.7729 6.77536 5.40361 7.03048 4.86898L8.77437 1.21436Z" stroke="#434343" stroke-width="1.5"/>
</svg>
