<svg width="16" height="16" viewBox="0 0 16 16" fill="none" xmlns="http://www.w3.org/2000/svg">
<path d="M14.7738 1.31049C13.1385 -0.43683 10.487 -0.43683 8.85202 1.31049L0.857548 9.85293C-0.285524 11.0743 -0.285524 13.0609 0.857548 14.2825C2.00062 15.504 3.85976 15.504 5.00302 14.2825L12.9975 5.74011C13.6486 5.04443 13.6486 3.90462 12.9975 3.2091C12.3464 2.51341 11.2797 2.51341 10.6288 3.2091L2.93047 11.4351L2.93033 11.435C2.85 11.5185 2.80444 11.6329 2.80356 11.7525C2.80283 11.8724 2.84708 11.9874 2.92624 12.072C3.00554 12.1567 3.11317 12.2039 3.22519 12.2031C3.33735 12.2023 3.4444 12.1536 3.52253 12.0678L11.2209 3.84174C11.554 3.48578 12.072 3.48562 12.4053 3.84174C12.7384 4.1977 12.7384 4.75123 12.4053 5.10734L4.41085 13.6498C3.58556 14.5316 2.27526 14.5316 1.44998 13.6498C0.624697 12.7679 0.624697 11.3678 1.44998 10.486L9.44445 1.94353C10.7617 0.53578 12.8645 0.53578 14.1818 1.94353C15.4992 3.35127 15.4991 5.598 14.1818 7.00555L6.4834 15.2316L6.48325 15.2314C6.40278 15.3149 6.35707 15.4293 6.35619 15.5492C6.35532 15.669 6.39957 15.7842 6.47887 15.8689C6.55817 15.9536 6.66595 16.0008 6.77811 16C6.89013 15.9991 6.99732 15.9502 7.07545 15.8642L14.7738 7.63819C16.4091 5.89087 16.4091 3.05796 14.7738 1.31056L14.7738 1.31049Z" fill="#434343"/>
</svg>
