<svg width="27" height="26" viewBox="0 0 27 26" fill="none" xmlns="http://www.w3.org/2000/svg">
<path d="M12.2663 25.5C9.62754 25.5 7.05917 24.633 4.94273 23.0276C2.82594 21.4221 1.27369 19.164 0.51615 16.5883C-0.241179 14.0125 -0.163375 11.2565 0.738139 8.72939C1.63962 6.20232 3.31677 4.03873 5.52062 2.56011C7.72448 1.08127 10.3374 0.366203 12.9714 0.52065C15.6057 0.675294 18.1209 1.69145 20.1436 3.41811C20.3974 3.62967 20.5576 3.93625 20.5884 4.26898C20.619 4.60171 20.5175 4.93316 20.3069 5.18912C20.0962 5.44526 19.7935 5.60472 19.4666 5.63171C19.1396 5.65892 18.8158 5.55136 18.5671 5.33351C16.882 3.89609 14.772 3.07682 12.5757 3.00691C10.3793 2.93702 8.22324 3.62068 6.45335 4.94802C4.68341 6.27535 3.40201 8.16985 2.81448 10.3276C2.22695 12.4853 2.36722 14.7818 3.21286 16.8489C4.05872 18.9158 5.56066 20.6336 7.47848 21.727C9.3963 22.8205 11.6188 23.2262 13.7896 22.8793C15.9608 22.5321 17.9545 21.4525 19.4519 19.8134C20.9491 18.174 21.8629 16.0701 22.0471 13.8386C22.0704 13.5067 22.2238 13.1982 22.4728 12.9833C22.7219 12.7682 23.0458 12.6646 23.3706 12.6958C23.6949 12.7234 23.9949 12.8807 24.205 13.1337C24.4151 13.3867 24.5177 13.7145 24.4908 14.0447C24.2194 17.1627 22.8158 20.065 20.5546 22.1838C18.2937 24.3026 15.3381 25.4851 12.2664 25.4997L12.2663 25.5ZM15.031 16.9479L26.6254 5.13378C26.8622 4.90087 26.9971 4.58071 27 4.24546C27.0028 3.91023 26.8732 3.58777 26.6408 3.35066C26.4081 3.11378 26.0917 2.98173 25.7627 2.98466C25.4337 2.98759 25.1196 3.12508 24.891 3.36636L13.2966 15.1804V15.1802C13.0539 15.4305 12.7179 15.5632 12.3731 15.5452C12.0405 15.5341 11.7275 15.3822 11.5094 15.126L8.32296 10.9793C8.05066 10.634 7.61941 10.4616 7.18943 10.5256C6.75942 10.5896 6.39473 10.8807 6.23087 11.2909C6.06699 11.701 6.12819 12.169 6.39207 12.5209L9.60112 16.697C10.2638 17.5058 11.229 17.994 12.2617 18.043C12.3167 18.0455 12.3719 18.0465 12.427 18.0465C13.4036 18.0461 14.3401 17.651 15.0312 16.9479H15.031Z" fill="white"/>
</svg>
