<svg width="6" height="8" viewBox="0 0 6 8" fill="none" xmlns="http://www.w3.org/2000/svg">
<path d="M5.59629 3.97446C5.59003 3.89347 5.55002 3.81653 5.48275 3.7558L1.39373 0.121523C1.31291 0.049274 1.19938 0.0057335 1.07839 0.000536448C0.957325 -0.00472354 0.838646 0.0288672 0.74855 0.0937648C0.658465 0.158599 0.60443 0.249545 0.59825 0.346379C0.59207 0.44322 0.634377 0.538023 0.715748 0.609897L4.53136 4L0.715748 7.3901C0.634379 7.46197 0.592069 7.55678 0.598249 7.65362C0.604429 7.75046 0.658465 7.8414 0.748549 7.90624C0.838634 7.97113 0.957321 8.00472 1.07839 7.99946C1.19937 7.99427 1.3129 7.95073 1.39373 7.87848L5.48275 4.2442C5.56483 4.17036 5.60587 4.07295 5.59629 3.97446L5.59629 3.97446Z" fill="white"/>
</svg>
