<svg width="8" height="14" viewBox="0 0 8 14" fill="none" xmlns="http://www.w3.org/2000/svg">
<path d="M0.00219115 7.04469C0.0122057 7.18644 0.0762225 7.32108 0.183852 7.42734L6.72629 13.7873C6.85559 13.9138 7.03725 13.99 7.23083 13.9991C7.42453 14.0083 7.61442 13.9495 7.75857 13.8359C7.90271 13.7225 7.98916 13.5633 7.99905 13.3938C8.00894 13.2244 7.94125 13.0585 7.81105 12.9327L1.70608 7L7.81105 1.06732C7.94124 0.941548 8.00894 0.77564 7.99905 0.606163C7.98916 0.436692 7.90271 0.277545 7.75857 0.164087C7.61444 0.0505156 7.42454 -0.00826609 7.23083 0.000938863C7.03725 0.0100334 6.85561 0.0862281 6.72629 0.212664L0.183852 6.57266C0.0525194 6.70187 -0.0131454 6.87234 0.00219115 7.04469L0.00219115 7.04469Z" fill="white"/>
</svg>
