<svg width="18" height="12" viewBox="0 0 18 12" fill="none" xmlns="http://www.w3.org/2000/svg">
<path d="M5.17969 0.804688L1.24219 11.5H0.242188L4.53906 0.125H5.23438L5.17969 0.804688ZM8.75781 11.5L4.8125 0.804688L4.75781 0.125H5.45312L9.75781 11.5H8.75781ZM8.05469 7.48438V8.3125H2.01562V7.48438H8.05469ZM16.3672 9.98438V5.625C16.3672 5.22396 16.2839 4.8776 16.1172 4.58594C15.9505 4.29427 15.7057 4.07031 15.3828 3.91406C15.0599 3.75781 14.6615 3.67969 14.1875 3.67969C13.75 3.67969 13.3594 3.75781 13.0156 3.91406C12.6771 4.0651 12.4089 4.27083 12.2109 4.53125C12.0182 4.78646 11.9219 5.07031 11.9219 5.38281L10.9844 5.375C10.9844 5.05729 11.0625 4.75 11.2188 4.45312C11.375 4.15625 11.5964 3.89062 11.8828 3.65625C12.1693 3.42188 12.5104 3.23698 12.9062 3.10156C13.3073 2.96094 13.7474 2.89062 14.2266 2.89062C14.8307 2.89062 15.362 2.99219 15.8203 3.19531C16.2839 3.39844 16.6458 3.70312 16.9062 4.10938C17.1667 4.51562 17.2969 5.02604 17.2969 5.64062V9.72656C17.2969 10.0182 17.3177 10.3203 17.3594 10.6328C17.4062 10.9453 17.4714 11.2031 17.5547 11.4062V11.5H16.5625C16.5 11.3125 16.4505 11.0781 16.4141 10.7969C16.3828 10.5104 16.3672 10.2396 16.3672 9.98438ZM16.5859 6.57812L16.6016 7.29688H14.7656C14.2865 7.29688 13.8568 7.34115 13.4766 7.42969C13.1016 7.51302 12.7839 7.63802 12.5234 7.80469C12.263 7.96615 12.0625 8.16146 11.9219 8.39062C11.7865 8.61979 11.7188 8.88021 11.7188 9.17188C11.7188 9.47396 11.7943 9.75 11.9453 10C12.1016 10.25 12.3203 10.4505 12.6016 10.6016C12.888 10.7474 13.2266 10.8203 13.6172 10.8203C14.138 10.8203 14.5964 10.724 14.9922 10.5312C15.3932 10.3385 15.724 10.0859 15.9844 9.77344C16.2448 9.46094 16.4193 9.11979 16.5078 8.75L16.9141 9.28906C16.8464 9.54948 16.7214 9.81771 16.5391 10.0938C16.362 10.3646 16.1302 10.6198 15.8438 10.8594C15.5573 11.0938 15.2188 11.2865 14.8281 11.4375C14.4427 11.5833 14.0052 11.6562 13.5156 11.6562C12.9635 11.6562 12.4818 11.5521 12.0703 11.3438C11.6641 11.1354 11.3464 10.8516 11.1172 10.4922C10.8932 10.1276 10.7812 9.71615 10.7812 9.25781C10.7812 8.84115 10.8698 8.46875 11.0469 8.14062C11.224 7.80729 11.4792 7.52604 11.8125 7.29688C12.151 7.0625 12.5573 6.88542 13.0312 6.76562C13.5104 6.64062 14.0469 6.57812 14.6406 6.57812H16.5859Z" fill="#434343"/>
<path d="M0 13.0625H18.5703V13.8438H0V13.0625Z" fill="#434343"/>
</svg>
