<svg width="50" height="50" viewBox="0 0 50 50" fill="none" xmlns="http://www.w3.org/2000/svg">
<path d="M25 18C24.4913 18 24.0789 18.4123 24.0789 18.9211V24.0789H18.9211C18.4123 24.0789 18 24.4913 18 25C18 25.5087 18.4123 25.9211 18.9211 25.9211H24.0789V31.0789C24.0789 31.5877 24.4913 32 25 32C25.5087 32 25.9211 31.5877 25.9211 31.0789V25.9211H31.0789C31.5877 25.9211 32 25.5087 32 25C32 24.4913 31.5877 24.0789 31.0789 24.0789H25.9211V18.9211C25.9211 18.4123 25.5087 18 25 18Z" fill="#747474"/>
<rect x="0.5" y="0.5" width="49" height="49" rx="3.5" stroke="#D6D6D6"/>
</svg>
