<svg width="14" height="16" viewBox="0 0 14 16" fill="none" xmlns="http://www.w3.org/2000/svg">
<path d="M8.4245 2.78876V2.21734C9.03328 2.18209 9.51713 1.6989 9.51713 1.10974C9.51713 0.497769 8.99508 0.000117481 8.3534 0.000117481L5.64737 0C5.00556 0 4.48364 0.497772 4.48364 1.10962C4.48364 1.69867 4.96749 2.18197 5.57615 2.21722V2.78865C2.3258 3.42479 0.000244144 6.12577 0.000244144 9.32515C0.000120943 13.0057 3.14036 16 7.00024 16C10.8601 16 14.0002 13.0058 14.0002 9.32545C14.0002 6.12577 11.6742 3.42473 8.42434 2.78895L8.4245 2.78876ZM5.24859 1.10961C5.24859 0.900028 5.42736 0.729557 5.64718 0.729557H8.35322C8.57302 0.729557 8.75181 0.900022 8.75181 1.10961C8.75181 1.31921 8.57303 1.48979 8.35322 1.48979L5.6473 1.48991C5.4275 1.48991 5.24859 1.31933 5.24859 1.10961V1.10961ZM7.6593 2.21944V2.67986C7.224 2.64145 6.77589 2.64145 6.34109 2.67986V2.21944H7.6593ZM7.00024 15.2705C3.56222 15.2705 0.765125 12.6034 0.765125 9.32527C0.765125 6.38192 2.97439 3.91237 6.01899 3.45342C6.33614 3.40478 6.66622 3.38011 6.99999 3.38011C7.33376 3.38011 7.66385 3.40467 7.98185 3.45342C11.0257 3.91243 13.2351 6.38186 13.2351 9.32527C13.2351 12.6034 10.4381 15.2705 6.99996 15.2705H7.00024Z" fill="#434343"/>
<path d="M13.075 5.14266C13.1502 5.21972 13.2524 5.25861 13.3549 5.25861C13.4483 5.25861 13.5419 5.22619 13.6157 5.16063C13.7703 5.0233 13.7787 4.79233 13.6346 4.64512L12.3579 3.33968C12.2138 3.19236 11.9719 3.18413 11.8172 3.32171C11.6627 3.45904 11.6542 3.69 11.7984 3.83722L13.075 5.14266Z" fill="#434343"/>
<path d="M0.379726 5.15868C0.453527 5.22435 0.547168 5.25665 0.640559 5.25665C0.742946 5.25665 0.845086 5.21777 0.920366 5.1407L2.19694 3.83526C2.3411 3.68783 2.3326 3.4571 2.17809 3.31975C2.02359 3.1823 1.78149 3.19028 1.63744 3.33772L0.360863 4.64316C0.216709 4.79048 0.225209 5.02132 0.379714 5.15867L0.379726 5.15868Z" fill="#434343"/>
<path d="M9.53578 8.9606H7.38256V5.64603C7.38256 5.44455 7.2113 5.28125 7 5.28125C6.78869 5.28125 6.61743 5.44455 6.61743 5.64603V9.32541C6.61743 9.52689 6.78869 9.69019 7 9.69019H9.53578C9.74708 9.69019 9.91834 9.52689 9.91834 9.32541C9.91822 9.12393 9.74708 8.96063 9.53578 8.96063V8.9606Z" fill="#434343"/>
</svg>
