<svg width="10" height="6" viewBox="0 0 10 6" fill="none" xmlns="http://www.w3.org/2000/svg">
<path d="M5.03192 5.99836C5.13317 5.99085 5.22934 5.94283 5.30524 5.86211L9.8481 0.955284C9.93841 0.858306 9.99283 0.722064 9.99933 0.576879C10.0059 0.431602 9.96392 0.289188 9.88279 0.181072C9.80175 0.0729708 9.68807 0.00812809 9.56703 0.000711867C9.44598 -0.00670411 9.32747 0.0440652 9.23763 0.14171L5 4.72044L0.762371 0.14171C0.672534 0.0440677 0.554029 -0.00670435 0.432974 0.000711867C0.311923 0.00812785 0.198246 0.0729708 0.117205 0.181072C0.0360826 0.289173 -0.00590436 0.431597 0.00067061 0.576879C0.00716669 0.722059 0.0615915 0.858292 0.151903 0.955284L4.69476 5.86211C4.78705 5.96061 4.90882 6.00986 5.03192 5.99836Z" fill="#434343"/>
</svg>
