<svg width="20" height="20" viewBox="0 0 20 20" fill="none" xmlns="http://www.w3.org/2000/svg">
<circle cx="10" cy="10" r="10" fill="#0077EE"/>
<path d="M9.99996 4.66699C9.76424 4.66699 9.57333 4.85807 9.57333 5.09363V9.57369H5.09326C4.85754 9.57369 4.66663 9.76476 4.66663 10.0003C4.66663 10.236 4.8577 10.427 5.09326 10.427H9.57333V14.907C9.57333 15.1427 9.7644 15.3337 9.99996 15.3337C10.2357 15.3337 10.4266 15.1426 10.4266 14.907V10.427H14.9067C15.1424 10.427 15.3333 10.2359 15.3333 10.0003C15.3333 9.76461 15.1422 9.57369 14.9067 9.57369H10.4266V5.09363C10.4266 4.85791 10.2355 4.66699 9.99996 4.66699Z" fill="white"/>
</svg>
