<svg width="18" height="20" viewBox="0 0 18 20" fill="none" xmlns="http://www.w3.org/2000/svg">
<path d="M12.8937 19.958C11.6008 19.7598 10.372 19.2366 9.31007 18.4323C8.07968 17.5265 6.94946 16.4774 5.94054 15.3047C4.7013 13.905 3.43939 12.5232 2.34579 10.9793C1.48495 9.73958 0.714882 8.43986 0.294797 6.94607C0.00274119 5.9963 -0.073664 4.98728 0.0716292 4.00055C0.26088 2.82274 0.851053 1.86486 1.65899 1.06295C1.99209 0.748132 2.35395 0.468727 2.73934 0.229088C2.96858 0.0750948 3.23568 -0.00441372 3.50728 0.000189108C3.77901 0.00479229 4.04348 0.0933669 4.26798 0.255169C5.34371 0.931667 6.16813 1.97671 6.60457 3.21662C6.6794 3.39139 6.70856 3.58402 6.6889 3.77471C6.66924 3.96538 6.60153 4.14686 6.49292 4.30044C6.22237 4.68641 5.94046 5.06232 5.66809 5.44829C5.42776 5.79017 5.17807 6.12618 4.96427 6.48605V6.48619C4.85421 6.65009 4.79588 6.84663 4.79759 7.04764C4.79931 7.24877 4.86094 7.44407 4.97364 7.60601C5.51289 8.40581 6.03497 9.22978 6.62158 9.99166C7.68278 11.3801 8.85786 12.6669 10.1332 13.8371C10.417 14.095 10.7215 14.3231 11.0243 14.557C11.1532 14.6629 11.3082 14.7274 11.4709 14.7431C11.6335 14.7587 11.797 14.7246 11.9419 14.645C12.2663 14.4759 12.582 14.289 12.8879 14.085C13.3117 13.799 13.7279 13.5051 14.1442 13.2232C14.3157 13.1071 14.5143 13.0434 14.718 13.0392C14.9216 13.0349 15.1225 13.0903 15.2983 13.1992C16.3717 13.762 17.2467 14.6729 17.7956 15.7987C17.95 16.0799 18.0196 16.404 17.9953 16.7281C17.9709 17.0521 17.8538 17.3605 17.6594 17.6124C16.6131 19.0642 15.2755 19.96 13.4971 20C13.2953 19.9969 13.0939 19.983 12.8936 19.958L12.8937 19.958Z" fill="#434343"/>
</svg>
