<svg width="16" height="12" viewBox="0 0 16 12" fill="none" xmlns="http://www.w3.org/2000/svg">
<path d="M15.5441 1.80016C15.2721 1.65451 14.9441 1.69727 14.7041 1.90305L12.0001 4.21719V1.71434C12.0001 0.77143 11.2801 0 10.4 0L1.59991 0.000143495C0.720001 0.000143495 0 0.771574 0 1.71434V10.2857C0 11.2286 0.720001 12 1.60005 12H10.4002C11.2802 12 12.0002 11.2286 12.0002 10.2857V7.78281L14.7042 10.0971C14.8481 10.2258 15.0241 10.2858 15.2 10.2858C15.32 10.2858 15.44 10.2601 15.5441 10.2001C15.824 10.0543 16 9.75428 16 9.42856V2.57164C16 2.24591 15.824 1.94586 15.5441 1.80021V1.80016Z" fill="#0077EE"/>
</svg>
