<svg width="16" height="14" viewBox="0 0 16 14" fill="none" xmlns="http://www.w3.org/2000/svg">
<path d="M3.06828 11.5481L2.39064 12.9519C2.25881 13.2139 2.3154 13.5321 2.50356 13.7566C2.65416 13.9064 2.84231 14 3.04937 14C3.12461 14 3.21875 13.9813 3.29412 13.9625L6.55055 12.8023C7.02114 12.8771 7.51052 12.9145 8 12.9145C12.4047 12.9145 16 10.0134 16 6.45727C16 2.90109 12.4047 0 8 0C3.59529 0 0 2.90113 0 6.45727C0 8.44121 1.14824 10.3316 3.06827 11.5482L3.06828 11.5481ZM8.00005 1.12292C11.7836 1.12292 14.8706 3.51866 14.8706 6.45719C14.8706 9.39565 11.7836 11.7915 8.00005 11.7915C7.52946 11.7915 7.07766 11.754 6.62596 11.6792C6.51304 11.6605 6.38122 11.6792 6.26828 11.7166L3.82119 12.5777L4.23531 11.698C4.40469 11.3612 4.27299 10.9306 3.9341 10.7435C2.16466 9.73284 1.12936 8.1232 1.12936 6.43863C1.12949 3.51872 4.21656 1.12308 7.99995 1.12308L8.00005 1.12292Z" fill="#434343"/>
</svg>
