<svg width="18" height="20" viewBox="0 0 18 20" fill="none" xmlns="http://www.w3.org/2000/svg">
<path d="M9.16729 0C4.31945 0 0.375488 4.48596 0.375488 10C0.375488 15.514 4.31945 20 9.16729 20C14.0151 20 17.9591 15.514 17.9591 10C17.9591 4.48596 14.0151 0 9.16729 0ZM9.16729 18.8764C4.86418 18.8764 1.36333 14.8945 1.36333 10C1.36333 5.10554 4.86418 1.1236 9.16729 1.1236C13.4704 1.1236 16.9712 5.10554 16.9712 10C16.9712 14.8945 13.4704 18.8764 9.16729 18.8764ZM9.16729 2.43459C8.89442 2.43459 8.67337 2.68602 8.67337 2.99639V8.66132L5.92385 5.59165C5.72967 5.37455 5.4167 5.37769 5.22541 5.59902C5.0344 5.82035 5.03729 6.17603 5.23189 6.3936L8.82128 10.4009C8.91555 10.5061 9.04013 10.5618 9.16747 10.5618C9.23169 10.5618 9.29674 10.5477 9.35848 10.5179C9.54177 10.4307 9.66111 10.2265 9.66111 10.0001V2.99613C9.66111 2.68607 9.44006 2.43433 9.16719 2.43433L9.16729 2.43459Z" fill="#434343"/>
</svg>
