<svg width="10" height="10" viewBox="0 0 10 10" fill="none" xmlns="http://www.w3.org/2000/svg">
<path d="M9.79191 7.95062L5.88625 1.13868C5.64221 0.712559 5.32114 0.5 4.9991 0.5C4.67706 0.5 4.35599 0.712559 4.11195 1.13868L0.211294 7.95062C-0.281807 8.80285 0.118227 9.5 1.09844 9.5H8.89976C9.87998 9.5 10.28 8.80285 9.79193 7.95062H9.79191ZM4.49102 3.93419L5.5082 3.93426V6.31764H4.49003V3.93426L4.49102 3.93419ZM5.0001 7.86301V7.86308C4.85241 7.86308 4.71064 7.80398 4.6062 7.69872C4.50169 7.59352 4.44301 7.45081 4.44301 7.30197C4.44301 7.15314 4.50169 7.01042 4.6062 6.90515C4.71064 6.79995 4.8524 6.74086 5.0001 6.74086C5.14787 6.74086 5.28956 6.79995 5.39408 6.90515C5.49852 7.01041 5.55719 7.15313 5.55719 7.30197C5.55747 7.45115 5.4988 7.59422 5.39408 7.69969C5.28936 7.80517 5.14725 7.86433 4.99914 7.86405L5.0001 7.86301Z" fill="#FE3C32"/>
</svg>
