<svg width="23" height="23" viewBox="0 0 23 23" fill="none" xmlns="http://www.w3.org/2000/svg">
<rect width="23" height="23" rx="11.5" fill="#FE3C32"/>
<path d="M12.2505 5.22687L12.0565 13.5311H10.3908L10.1886 5.22687H12.2505ZM10.132 16.0782C10.132 15.7817 10.2291 15.5337 10.4231 15.3343C10.6226 15.1295 10.8975 15.027 11.2479 15.027C11.5929 15.027 11.8651 15.1295 12.0646 15.3343C12.264 15.5337 12.3638 15.7817 12.3638 16.0782C12.3638 16.3639 12.264 16.6092 12.0646 16.814C11.8651 17.0135 11.5929 17.1132 11.2479 17.1132C10.8975 17.1132 10.6226 17.0135 10.4231 16.814C10.2291 16.6092 10.132 16.3639 10.132 16.0782Z" fill="white"/>
</svg>
