<svg width="17" height="9" viewBox="0 0 17 9" fill="none" xmlns="http://www.w3.org/2000/svg">
<path d="M16.8957 4.17079C16.0992 3.13193 13.3118 0.015625 8.77578 0.015625C4.23973 0.015625 1.46962 3.132 0.655906 4.17079C0.500115 4.36124 0.500115 4.63827 0.655906 4.82872C1.45237 5.86757 4.23973 8.98388 8.77578 8.98388C13.3118 8.98388 16.0819 5.86751 16.8957 4.82872C17.0342 4.63827 17.0342 4.36123 16.8957 4.17079ZM8.77578 7.84118C6.92321 7.84118 5.43434 6.35225 5.43434 4.49974C5.43434 2.64716 6.92327 1.15829 8.77578 1.15829C10.6284 1.15829 12.1172 2.64723 12.1172 4.49974C12.1172 6.35231 10.6284 7.84118 8.77578 7.84118Z" fill="#747474"/>
<path d="M10.9226 4.4994C10.9226 5.68511 9.96144 6.64627 8.77577 6.64627C7.5901 6.64627 6.62891 5.68508 6.62891 4.4994C6.62891 3.31373 7.5901 2.35254 8.77577 2.35254C9.96144 2.35254 10.9226 3.31373 10.9226 4.4994Z" fill="#747474"/>
</svg>
