<svg width="16" height="16" viewBox="0 0 16 16" fill="none" xmlns="http://www.w3.org/2000/svg">
<path fill-rule="evenodd" clip-rule="evenodd" d="M12.9498 8.87162C12.4008 9.16686 11.9103 9.42713 11.4743 9.65509C8.97791 10.9616 8.22568 11.2353 7.99977 11.2808C7.77417 11.2353 7.02194 10.9616 4.52475 9.65585C4.08844 9.42773 3.59797 9.16717 3.04901 8.87223C2.55438 8.60616 2.01316 8.31197 1.4167 7.98473L1.41715 7.98414L1.06759 7.38711L1.41715 7.98383C2.00138 7.66315 2.53262 7.37446 3.01925 7.11241C3.67133 7.45943 4.234 7.75259 4.71956 8.00021C5.36303 8.32834 5.87343 8.57671 6.27922 8.76421C7.53755 9.34516 7.80601 9.34649 7.99976 9.34649C8.19381 9.34649 8.46228 9.34515 9.7206 8.76421C10.1267 8.57671 10.6368 8.32836 11.2803 8.00021C11.7658 7.75259 12.3289 7.45915 12.9806 7.11214C13.4672 7.37404 13.9984 7.66288 14.5827 7.98341C13.9864 8.31094 13.4441 8.60543 12.9498 8.87164M14.5827 11.3268C9.53466 14.0979 8.30075 14.5636 7.9998 14.6243C7.69905 14.5636 6.46482 14.0983 1.41692 11.3282L1.41737 11.3276L1.06781 10.7306L1.41737 11.3271C2.01364 10.9998 2.55562 10.7054 3.05025 10.4391C7.21445 12.6545 7.69674 12.6566 7.99998 12.6566C8.3034 12.6566 8.78585 12.6545 12.9501 10.4391C13.4447 10.7051 13.9867 10.9993 14.583 11.3269M1.41683 4.67471L1.41728 4.67412L1.06772 4.07709L1.41728 4.67366C6.46491 1.9027 7.6992 1.43691 7.99978 1.37619C8.30082 1.4369 9.5346 1.90266 14.5827 4.67336C13.9984 4.99404 13.4672 5.28273 12.9806 5.54463C12.4323 5.83957 11.9417 6.10029 11.5058 6.32855C10.7713 6.71308 10.1859 7.0092 9.72058 7.23659C8.58827 7.78973 8.16092 7.93792 7.99974 7.97079C7.83887 7.93791 7.41151 7.79014 6.27889 7.23659C5.8131 7.0092 5.22769 6.71339 4.49317 6.32901C4.05733 6.10059 3.56685 5.84032 3.01816 5.54539C2.53199 5.28349 2.00075 4.99511 1.41667 4.67473M15.8148 8.66024C16.0014 8.34164 16.0489 7.97171 15.9483 7.61841C15.8477 7.26499 15.6108 6.9711 15.2815 6.7903C14.9861 6.6281 14.7071 6.47587 14.4358 6.3284C14.7066 6.18093 14.9854 6.02914 15.2807 5.86695C15.5032 5.74523 15.6878 5.56651 15.8148 5.34985C16.0014 5.03155 16.0489 4.66162 15.9483 4.30802C15.8477 3.95475 15.6108 3.66102 15.2815 3.47991C8.94244 0 8.35234 0 7.99996 0C7.64758 0 7.05756 0 0.718412 3.47991L0.717668 3.48021C0.495348 3.60298 0.31081 3.7817 0.185096 3.99674C-0.00151077 4.31519 -0.0489816 4.68527 0.051613 5.03841C0.152208 5.39198 0.389115 5.68588 0.718434 5.86653C1.01382 6.02873 1.29284 6.18066 1.56411 6.32843C1.29283 6.4759 1.01383 6.62813 0.718434 6.79033L0.71769 6.79078C0.495369 6.9131 0.310832 7.09212 0.185117 7.30716C-0.00148926 7.62531 -0.0489595 7.99539 0.0516351 8.34898C0.15223 8.70211 0.389137 8.99599 0.718456 9.1771C1.02486 9.3454 1.31415 9.50284 1.59465 9.65538C1.31414 9.80776 1.02486 9.9655 0.718456 10.1338L0.717712 10.1341C0.495391 10.2566 0.310853 10.4356 0.185139 10.6502C-0.00146775 10.9688 -0.048938 11.3389 0.0516566 11.6923C0.152251 12.0456 0.389158 12.3394 0.718478 12.5204C7.05754 16 7.64764 16 8.00002 16C8.3527 16 8.94273 16 15.2808 12.5208C15.5033 12.3987 15.6878 12.2204 15.8149 12.0037C16.0015 11.6851 16.049 11.3152 15.9484 10.9619C15.8478 10.6084 15.6109 10.3145 15.2816 10.1338C14.9752 9.96551 14.6859 9.80777 14.4054 9.65537C14.6856 9.50314 14.9746 9.3454 15.2808 9.17739C15.5033 9.05537 15.6878 8.87695 15.8149 8.66029" fill="#434343"/>
</svg>
