<svg width="14" height="16" viewBox="0 0 14 16" fill="none" xmlns="http://www.w3.org/2000/svg">
<path d="M0.476408 15.6259H4.42954C4.5377 15.6259 4.63076 15.582 4.71045 15.518C6.16225 15.834 7.65574 16 9.1665 16C9.85156 16 10.5405 15.9681 11.2275 15.9021C12.1194 15.9021 12.8823 15.23 13.0437 14.3019L13.9926 8.76948C13.9965 8.74144 14.0002 8.71353 14.0002 8.68549C14.004 8.11943 13.8768 7.62538 13.6168 7.21533C12.6356 5.70303 10.1839 5.9991 8.86457 6.15719C8.86073 6.15719 8.85504 6.15914 8.85134 6.15914V1.88869C8.85134 1.05867 8.41857 0.354493 7.74876 0.0965015C7.15479 -0.133573 6.52097 0.0545042 6.09007 0.588589C6.05208 0.634633 6.02362 0.688628 6.00469 0.744577L4.05184 6.5009H0.476566C0.212734 6.5009 0.00025782 6.72692 0.00025782 7.00291V15.1216C-0.00172786 15.3997 0.212724 15.6257 0.476566 15.6257L0.476408 15.6259ZM6.87192 1.17835C7.03328 1.01232 7.22483 0.964318 7.42037 1.03827C7.64052 1.12421 7.89668 1.39627 7.89668 1.88628V6.73465C7.89668 6.88268 7.9593 7.02263 8.0656 7.11876C8.17375 7.21476 8.3142 7.25675 8.45281 7.2308C8.61789 7.20276 8.79248 7.17681 8.97663 7.15476C10.0147 7.02877 12.1744 6.77065 12.8254 7.77479C12.8785 7.86073 13.0417 8.11481 13.0455 8.63284L12.1043 14.1216C12.0265 14.5696 11.6584 14.8957 11.1858 14.8977C9.0337 15.0997 6.92324 14.9757 4.90618 14.5356V7.00303C4.90618 6.99508 4.90234 6.98908 4.90234 6.98308L6.87192 1.17835ZM0.952886 7.50509H3.95137L3.95124 14.6198H0.952753L0.952886 7.50509Z" fill="#434343"/>
</svg>
