<svg width="21" height="26" viewBox="0 0 21 26" fill="none" xmlns="http://www.w3.org/2000/svg">
<path fill-rule="evenodd" clip-rule="evenodd" d="M16.5314 10.5498C18.5303 10.5498 20.1507 12.1952 20.1507 14.2248V21.5749C20.1507 23.6048 18.5303 25.25 16.5314 25.25H4.46691C2.46805 25.25 0.847656 23.6048 0.847656 21.5749V14.2248C0.847656 12.1952 2.46805 10.5498 4.46691 10.5498H14.1184V6.87474C14.1184 4.84506 12.498 3.19969 10.4992 3.19969C8.50031 3.19969 6.87992 4.84506 6.87992 6.87474V10.5498C5.86937 10.5498 6.43873 10.5498 5.77243 10.5498C5.10612 10.5498 5.13259 10.5498 4.46691 10.5498L4.46701 6.87474C4.46701 3.4919 7.1677 0.75 10.4993 0.75C13.8309 0.75 16.5315 3.49211 16.5315 6.87474L16.5314 10.5498ZM8.08616 17.8999C8.08616 17.2233 8.62641 16.6749 9.29272 16.6749H11.7054C12.3717 16.6749 12.912 17.2233 12.912 17.8999C12.912 18.5765 12.3717 19.125 11.7054 19.125H9.29272C8.62641 19.125 8.08616 18.5765 8.08616 17.8999Z" fill="#ffffff"/>
</svg>
