<svg width="14" height="16" viewBox="0 0 14 16" fill="none" xmlns="http://www.w3.org/2000/svg">
<path d="M12.3579 0H1.64194C0.743145 0 0 0.750211 0 1.65755V8.30532C0 8.95087 0.466696 9.49174 1.10617 9.56159L5.21974 10.0501C5.25434 10.0501 5.27158 10.0851 5.27158 10.1374C5.27158 10.1548 5.27158 10.1723 5.25434 10.1897C5.16789 10.6609 4.78764 13.1908 4.78764 13.7666C4.78764 15.0055 5.77288 16 6.99998 16C8.2272 16 9.21232 14.988 9.21232 13.7492C9.21232 13.1735 8.81482 10.6435 8.74562 10.1724C8.74562 10.155 8.74562 10.1374 8.72838 10.12V10.0677C8.72838 10.0503 8.74562 10.0503 8.76298 10.0328L12.8938 9.56162C13.5333 9.49188 14 8.95087 14 8.30535V1.65758C14 0.732825 13.2567 3.11404e-05 12.3581 3.11404e-05L12.3579 0ZM12.79 8.30535C12.79 8.32276 12.7728 8.34028 12.7554 8.34028L8.6246 8.82883H8.58999C8.55539 8.82883 8.52091 8.84624 8.48631 8.84624C8.15788 8.9335 7.88131 9.14284 7.70857 9.43945C7.53568 9.71865 7.48384 10.0676 7.57028 10.3816C7.76041 11.4983 8.01963 13.4001 8.01963 13.7316C8.01963 14.2901 7.57028 14.7436 7.01716 14.7436C6.46405 14.7436 6.0147 14.29 6.0147 13.7316C6.0147 13.3827 6.29127 11.4983 6.46405 10.3816C6.46405 10.3467 6.48129 10.3293 6.48129 10.2943C6.60233 9.59645 6.11827 8.93336 5.42697 8.81116H5.39237L1.24454 8.34028C1.2273 8.34028 1.20994 8.32287 1.20994 8.30535V6.19417H12.7729V8.30535L12.79 8.30535ZM12.79 4.97274H1.20984V1.65758C1.20984 1.41331 1.39997 1.22138 1.64194 1.22138H3.80242V2.32064C3.80242 2.65219 4.079 2.93139 4.40742 2.93139C4.73585 2.93139 5.01242 2.65219 5.01242 2.32064V1.22138H6.39516V3.19306C6.39516 3.5246 6.67173 3.8038 7.00016 3.8038C7.32859 3.8038 7.60516 3.52461 7.60516 3.19306L7.60504 1.22125H8.98778V2.32052C8.98778 2.65207 9.26435 2.93127 9.59278 2.93127C9.92121 2.93127 10.1978 2.65207 10.1978 2.32052V1.22125H12.3581C12.6001 1.22125 12.7902 1.41319 12.7902 1.65746L12.79 4.97274Z" fill="#434343"/>
</svg>
