<svg width="10" height="12" viewBox="0 0 10 12" fill="none" xmlns="http://www.w3.org/2000/svg">
<path d="M7.16315 11.9748C6.44491 11.8559 5.76224 11.5419 5.17226 11.0594C4.48871 10.5159 3.86081 9.88643 3.3003 9.18283C2.61183 8.34299 1.91077 7.51392 1.30322 6.58761C0.824971 5.84375 0.397157 5.06392 0.163776 4.16764C0.00152288 3.59778 -0.0409244 2.99237 0.039794 2.40033C0.144933 1.69364 0.472807 1.11891 0.921662 0.637771C1.10672 0.448879 1.30775 0.281236 1.52186 0.137453C1.64921 0.0450569 1.7976 -0.00264823 1.94849 0.000113465C2.09945 0.00287537 2.24638 0.0560201 2.3711 0.153102C2.96872 0.559 3.42674 1.18603 3.6692 1.92997C3.71078 2.03484 3.72698 2.15041 3.71606 2.26482C3.70513 2.37923 3.66752 2.48812 3.60718 2.58026C3.45687 2.81185 3.30026 3.03739 3.14894 3.26897C3.01542 3.4741 2.8767 3.67571 2.75793 3.89163V3.89171C2.69678 3.99005 2.66438 4.10798 2.66533 4.22858C2.66628 4.34926 2.70052 4.46644 2.76314 4.56361C3.06272 5.04349 3.35276 5.53787 3.67866 5.99499C4.26821 6.82807 4.92103 7.60012 5.62956 8.30226C5.7872 8.45701 5.95642 8.59384 6.12461 8.73419C6.19624 8.79771 6.28232 8.83646 6.37273 8.84584C6.46305 8.85521 6.55389 8.83479 6.63439 8.787C6.81461 8.68557 6.98998 8.57342 7.15994 8.45097C7.39536 8.2794 7.62661 8.10307 7.85787 7.93392C7.95318 7.86429 8.06352 7.82604 8.17665 7.82353C8.28978 7.82094 8.40137 7.85416 8.49903 7.91953C9.0954 8.25723 9.58151 8.80374 9.88644 9.47921C9.97222 9.64793 10.0109 9.84243 9.99737 10.0368C9.98381 10.2313 9.91877 10.4163 9.81078 10.5675C9.2295 11.4385 8.48642 11.976 7.49837 12C7.38626 11.9982 7.27437 11.9898 7.16309 11.9748L7.16315 11.9748Z" fill="#0077EE"/>
</svg>
