<svg width="16" height="16" viewBox="0 0 16 16" fill="none" xmlns="http://www.w3.org/2000/svg">
<path fill-rule="evenodd" clip-rule="evenodd" d="M2 7.53321C2 4.4774 4.47751 2 7.53388 2C10.5903 2 13.0678 4.4774 13.0678 7.53321C13.0678 10.589 10.5903 13.0664 7.53388 13.0664C4.47751 13.0664 2 10.589 2 7.53321ZM7.53388 0C3.37313 0 0 3.37264 0 7.53321C0 11.6938 3.37313 15.0664 7.53388 15.0664C9.25351 15.0664 10.8386 14.4903 12.1066 13.5206L14.2929 15.7066C14.6834 16.0971 15.3166 16.0971 15.7071 15.7066C16.0977 15.3161 16.0977 14.683 15.7071 14.2925L13.521 12.1066C14.4913 10.8385 15.0678 9.25321 15.0678 7.53321C15.0678 3.37264 11.6946 0 7.53388 0Z" fill="white"/>
</svg>
