<svg width="15" height="12" viewBox="0 0 15 12" fill="none" xmlns="http://www.w3.org/2000/svg">
<path fill-rule="evenodd" clip-rule="evenodd" d="M2.08499 5.51843L0.856822 2.16885C0.662185 1.63792 0.785589 1.03781 1.17202 0.63558C1.55815 0.233044 2.13591 0.102901 2.64874 0.302536L13.8005 4.64729C14.3435 4.85909 14.7034 5.39793 14.7034 5.99999C14.7034 6.60206 14.3435 7.14092 13.8005 7.3527C10.7614 8.53685 5.48082 10.594 2.64874 11.6975C2.1359 11.8971 1.55814 11.767 1.17201 11.3644C0.785589 10.9622 0.66218 10.3621 0.85682 9.83115L2.08499 6.48157L8.21815 6.48196C8.47457 6.48158 8.6824 6.26598 8.6827 6.00005C8.68233 5.73406 8.4745 5.51846 8.21815 5.51815L2.08499 5.51854L2.08499 5.51843Z" fill="#0077EE"/>
</svg>
