<svg width="10" height="16" viewBox="0 0 10 16" fill="none" xmlns="http://www.w3.org/2000/svg">
<path d="M0.0027386 8.05108C0.0152565 8.21307 0.0952774 8.36695 0.229814 8.48839L8.40786 15.757C8.56949 15.9015 8.79656 15.9885 9.03853 15.9989C9.28066 16.0094 9.51802 15.9423 9.69821 15.8125C9.87838 15.6828 9.98645 15.5009 9.99881 15.3072C10.0112 15.1136 9.92656 14.924 9.76382 14.7802L2.1326 8L9.76382 1.21979C9.92655 1.07605 10.0112 0.886446 9.99881 0.692758C9.98645 0.499077 9.87838 0.317194 9.69821 0.187528C9.51805 0.0577321 9.28067 -0.009447 9.03853 0.00107293C8.79657 0.0114666 8.56951 0.0985463 8.40786 0.243045L0.229814 7.51161C0.0656487 7.65928 -0.0164331 7.85411 0.0027386 8.05108Z" fill="#434343"/>
</svg>
