<svg width="16" height="16" viewBox="0 0 16 16" fill="none" xmlns="http://www.w3.org/2000/svg">
<path d="M15.8451 7.69021C14.4219 4.84096 11.3426 3 8 3C4.65737 3 1.57819 4.84104 0.154889 7.69021L0 8L0.154889 8.30979C1.57811 11.159 4.65737 13 8 13C11.3426 13 14.4218 11.159 15.8451 8.30979L16 8L15.8451 7.69021ZM8 11.6542C5.26094 11.6542 2.73765 10.2308 1.47057 8.00002C2.73785 5.76911 5.26102 4.34582 8 4.34582C10.739 4.34582 13.2623 5.76911 14.5294 8.00002C13.2622 10.2309 10.739 11.6542 8 11.6542ZM8 5.32784C6.58114 5.32784 5.42653 6.52647 5.42653 8.00014C5.42653 9.47382 6.58114 10.6724 8 10.6724C9.41886 10.6724 10.5735 9.4735 10.5735 8.00014C10.5735 6.52679 9.41886 5.32784 8 5.32784ZM8 9.32658C7.2956 9.32658 6.72262 8.73159 6.72262 8.00014C6.72262 7.26869 7.2956 6.67371 8 6.67371C8.7044 6.67371 9.27738 7.26869 9.27738 8.00014C9.27738 8.73159 8.7044 9.32658 8 9.32658Z" fill="#434343"/>
</svg>
