<svg width="16" height="16" viewBox="0 0 16 16" fill="none" xmlns="http://www.w3.org/2000/svg">
<path d="M5.4667 4.88867C5.00565 4.88867 4.62231 5.27197 4.62231 5.73318C4.62231 6.19423 5.00562 6.57769 5.46682 6.57769C5.92787 6.57769 6.31133 6.19439 6.31133 5.73318C6.31133 5.27213 5.92803 4.88867 5.46682 4.88867H5.4667Z" fill="#434343"/>
<path d="M10.5334 4.88867C10.0723 4.88867 9.68884 5.27197 9.68884 5.73318C9.68884 6.19423 10.0721 6.57769 10.5334 6.57769C10.9944 6.57769 11.3779 6.19439 11.3779 5.73318C11.3779 5.27213 10.9946 4.88867 10.5334 4.88867Z" fill="#434343"/>
<path d="M8 0C3.58698 0 0 3.58698 0 8C0 12.413 3.58698 16 8 16C12.413 16 16 12.413 16 8C16 3.58698 12.413 0 8 0ZM8 0.97781C11.8876 0.97781 15.0222 4.11248 15.0222 8.00003C15.0222 11.8876 11.8876 15.0223 8 15.0223C4.11244 15.0223 0.977778 11.8876 0.977778 8.00003C0.977778 4.11248 4.11244 0.97781 8 0.97781Z" fill="#434343"/>
<path d="M11.8275 10.5555C12.0998 10.1405 11.8052 9.74626 11.433 9.76115C11.2631 9.76797 11.1151 9.88218 11.022 10.0223C10.3427 11.0435 9.16977 11.5557 7.99977 11.5557C6.82964 11.5557 5.65675 11.0436 4.97758 10.0223C4.88445 9.88231 4.73638 9.76797 4.5665 9.76115C4.19434 9.74627 3.8997 10.1405 4.17202 10.5555C5.04158 11.8808 6.52583 12.5333 7.99964 12.5333C9.47373 12.5333 10.9579 11.8808 11.8273 10.5555H11.8275Z" fill="#434343"/>
</svg>
