<svg width="16" height="16" viewBox="0 0 16 16" fill="none" xmlns="http://www.w3.org/2000/svg">
<path d="M10.4416 13.1979L12.7563 10.8665C12.8901 10.7316 13 10.7765 13 10.9686V12.269C13 12.46 12.8896 12.7278 12.7537 12.8649L9.74338 15.8967C9.60572 16.0353 9.38693 16.0336 9.25096 15.8967L6.24068 12.8649C6.10302 12.7261 5.99435 12.461 5.99435 12.269V10.9686C5.99435 10.7775 6.1035 10.7308 6.23802 10.8665L8.55278 13.1979C8.68682 13.3326 8.7967 13.2879 8.7967 13.0958V7.73288C8.7967 7.5411 8.95174 7.38535 9.14301 7.38535H9.85133C10.0424 7.38535 10.1976 7.54085 10.1976 7.73288V13.0958C10.1976 13.2874 10.3068 13.3333 10.4416 13.1979ZM5.55844 2.80211L3.24367 5.1335C3.10988 5.26845 3 5.22346 3 5.03144V3.73102C3 3.53996 3.11012 3.27223 3.24633 3.13511L6.25643 0.103299C6.39409 -0.0352801 6.61313 -0.0335837 6.7491 0.103299L9.75938 3.13511C9.89704 3.27393 10.0057 3.53899 10.0057 3.73102V5.03144C10.0057 5.2225 9.89656 5.26917 9.7618 5.1335L7.44704 2.80211C7.31324 2.6674 7.20336 2.71214 7.20336 2.90416V8.26712C7.20336 8.4589 7.04832 8.61465 6.85705 8.61465H6.14848C5.95746 8.61465 5.80217 8.45915 5.80217 8.26712V2.90416C5.80217 2.71262 5.69301 2.66667 5.55849 2.80211H5.55844Z" fill="#434343"/>
</svg>
