<svg width="16" height="16" viewBox="0 0 16 16" fill="none" xmlns="http://www.w3.org/2000/svg">
<path d="M8.28561 1.14933C8.11783 0.981548 7.90206 0.870189 7.66806 0.830761L2.82714 0.0142844C2.49965 -0.0408997 2.16556 0.0657478 1.9307 0.300618L0.300618 1.93071C0.0657497 2.16558 -0.0409035 2.49967 0.0142865 2.82716L0.830757 7.66811C0.870192 7.90211 0.98155 8.11789 1.14933 8.28566L8.63022 15.7666C8.77965 15.916 8.98229 16 9.19359 16C9.40477 16 9.60739 15.916 9.75682 15.7666L15.7666 9.75677C15.916 9.60735 16 9.40471 16 9.19354C16 8.98223 15.916 8.7796 15.7666 8.63017L8.28561 1.14933ZM3.84405 3.84428C3.62481 4.0634 3.32745 4.18654 3.01742 4.18654C2.70741 4.18654 2.41016 4.0634 2.19092 3.84428C1.97168 3.62504 1.84854 3.32768 1.84854 3.01765C1.84854 2.70763 1.97168 2.41038 2.19092 2.19114C2.41016 1.9719 2.70743 1.84876 3.01742 1.84876C3.32744 1.84876 3.62482 1.9719 3.84405 2.19114C4.06317 2.41039 4.1863 2.70765 4.1863 3.01765C4.1863 3.32767 4.06317 3.62505 3.84405 3.84428Z" fill="#F4BF00"/>
</svg>
