<svg width="16" height="16" viewBox="0 0 16 16" fill="none" xmlns="http://www.w3.org/2000/svg">
<path d="M16 9.44453C15.8625 9.77826 15.6482 10.068 15.3776 10.2856C15.3056 10.3331 15.2571 10.4133 15.2456 10.504C15.2341 10.5947 15.2608 10.6862 15.3184 10.7531C15.7472 11.4482 15.7136 11.7263 15.1184 12.2963C14.9248 12.4822 14.9424 12.6838 15.0272 12.9028C15.1624 13.188 15.2181 13.5099 15.1872 13.829C15.0975 14.3904 14.6 14.7674 13.8927 14.7865C12.8767 14.8161 11.8606 14.8265 10.8526 14.8456L5.75959 14.9499H5.63157C4.92752 14.9499 4.67149 14.7136 4.65554 14.022C4.62675 12.948 4.62831 11.8706 4.58835 10.7965C4.55096 9.81056 4.53556 8.82577 4.54192 7.84219C4.54136 7.49041 4.64896 7.14855 4.8475 6.87072C5.53078 5.91321 6.11474 4.88438 6.89711 4.00153C7.09544 3.758 7.32312 3.54464 7.57402 3.36729C8.05406 3.05103 8.17246 2.5853 8.17883 2.06392C8.16734 1.71163 8.18609 1.35913 8.23475 1.01073C8.26968 0.772893 8.37069 0.552378 8.52427 0.378813C8.67785 0.205101 8.87663 0.0866683 9.09403 0.0392845C9.63011 -0.0806039 10.0845 0.0722567 10.3741 0.520663C11.0396 1.50424 11.1485 2.57828 10.8429 3.70616C10.7264 4.11517 10.5726 4.51047 10.3837 4.88612C10.3039 5.04274 10.2334 5.2047 10.1724 5.371C10.1212 5.52047 10.1724 5.62824 10.3517 5.64387C11.1071 5.69685 11.8645 5.70327 12.6205 5.6629C13.4397 5.63684 14.2605 5.5812 15.0734 5.69418C15.5709 5.76364 15.8158 6.13906 15.9565 6.58565C16.0109 6.99404 15.9725 7.37115 15.6285 7.66658C15.4493 7.81957 15.4685 7.9968 15.6157 8.17754L15.6158 8.17766C15.8176 8.3904 15.9521 8.66726 15.9998 8.96828L16 9.44453Z" fill="#0077EE"/>
<path d="M3.58115 11.7037V15.1688C3.58115 15.7319 3.34755 15.9873 2.78113 15.9908C2.07708 15.9908 1.37306 16.022 0.669007 15.9682C0.248223 15.9352 0.000244141 15.6866 0.000244141 15.2644V13.9419V8.20705C0.000244141 7.63524 0.248243 7.39195 0.83387 7.39195C1.47383 7.39195 2.09954 7.40237 2.73316 7.39195C3.30283 7.37982 3.59881 7.68906 3.58753 8.22086C3.5652 9.3749 3.58116 10.5392 3.58116 11.7037L3.58115 11.7037Z" fill="#0077EE"/>
</svg>
