<svg width="16" height="16" viewBox="0 0 16 16" fill="none" xmlns="http://www.w3.org/2000/svg">
<path d="M1.06177 9.81008C-0.353598 11.2255 -0.353598 13.5232 1.06177 14.9385C2.47714 16.3538 4.77493 16.3539 6.19018 14.9385L9.20693 11.9218C10.6223 10.5064 10.6223 8.20858 9.20693 6.79332H9.20708C9.12747 6.71148 9.01825 6.6649 8.90413 6.66416C8.79 6.66327 8.68018 6.70836 8.59953 6.78915C8.51873 6.8698 8.47365 6.97961 8.47454 7.09374C8.47529 7.20787 8.52186 7.31709 8.6037 7.3967C9.69528 8.48829 9.69528 10.227 8.6037 11.3184L5.58695 14.3351C4.49537 15.4267 2.75663 15.4267 1.66532 14.3351C0.573733 13.2435 0.573733 11.5048 1.66532 10.4135L4.53118 7.54759V7.54744C4.61302 7.46783 4.65944 7.35876 4.66019 7.24463C4.66108 7.1305 4.61599 7.02069 4.53534 6.94004C4.45455 6.85924 4.34488 6.8143 4.2306 6.81505C4.11647 6.81579 4.0074 6.86236 3.9278 6.94405L1.06177 9.81008ZM6.79357 4.07825C5.3782 5.49363 5.3782 7.79143 6.79357 9.20669C6.87318 9.28867 6.9824 9.33525 7.09653 9.33614C7.2108 9.33689 7.32062 9.29195 7.40142 9.21115C7.48221 9.13036 7.52715 9.02054 7.52641 8.90626C7.52551 8.79213 7.47894 8.68291 7.39695 8.60331C6.30537 7.51172 6.30537 5.77297 7.39695 4.68165L10.4137 1.66474C11.5053 0.573151 13.244 0.573151 14.3353 1.66474C15.4269 2.75633 15.4269 4.49507 14.3353 5.58639L11.4695 8.45227V8.45242C11.3876 8.53202 11.3409 8.64109 11.3402 8.75537C11.3393 8.86965 11.3844 8.97946 11.4652 9.06026C11.546 9.14091 11.6556 9.186 11.7699 9.1851C11.8842 9.18436 11.9932 9.13778 12.0729 9.0558L14.9387 6.18992C16.3541 4.77455 16.3541 2.47675 14.9387 1.06149C13.5233 -0.353773 11.2256 -0.353887 9.8103 1.06149L6.79357 4.07825Z" fill="#434343"/>
</svg>
