<svg width="10" height="10" viewBox="0 0 10 10" fill="none" xmlns="http://www.w3.org/2000/svg">
<path d="M3.75684 10H3.76813C3.90441 9.99486 4.03139 9.91712 4.11382 9.7883L9.88232 0.896504C9.96736 0.785633 10.0094 0.637686 9.99822 0.488549C9.98713 0.339286 9.92378 0.20246 9.82362 0.111089C9.72345 0.0197125 9.59565 -0.0177213 9.47109 0.00787241C9.34662 0.0333476 9.23687 0.119579 9.16837 0.245521L3.74563 8.61222L0.83078 4.55593C0.759567 4.42629 0.644677 4.33934 0.515461 4.31757C0.386247 4.29592 0.255428 4.34137 0.156656 4.44255C0.057805 4.54361 0.000812287 4.69049 6.62327e-06 4.84512C-0.000699469 4.99988 0.0550807 5.14747 0.152925 5.24986L3.42 9.8043C3.50301 9.92414 3.62587 9.99554 3.7567 9.99985L3.75684 10Z" fill="black"/>
</svg>
