<svg width="30" height="20" viewBox="0 0 30 20" fill="none" xmlns="http://www.w3.org/2000/svg">
<path d="M29.1452 3.00026C28.6352 2.75752 28.0202 2.82879 27.5702 3.17174L22.5002 7.02865V2.85723C22.5002 1.28572 21.1502 0 19.5001 0L2.99983 0.000239159C1.35 0.000239159 0 1.28596 0 2.85723V17.1428C0 18.7143 1.35 20 3.00009 20H19.5003C21.1504 20 22.5004 18.7143 22.5004 17.1428V12.9714L27.5704 16.8285C27.8401 17.043 28.1701 17.143 28.5001 17.143C28.7251 17.143 28.9501 17.1002 29.1452 17.0002C29.67 16.7572 30 16.2571 30 15.7143V4.28607C30 3.74318 29.67 3.24311 29.1452 3.00035V3.00026Z" fill="#434343"/>
</svg>
