<svg width="16" height="14" viewBox="0 0 16 14" fill="none" xmlns="http://www.w3.org/2000/svg">
<path d="M15.5789 13.4998C15.4695 13.4998 15.3616 13.4489 15.2811 13.3533L12.6181 10.1902V12.0006C12.6181 12.8274 12.0517 13.5 11.3556 13.5L1.2625 13.4998C0.566376 13.4998 0 12.8271 0 12.0004V1.99962C0 1.17289 0.566424 0.500247 1.2625 0.500247H11.3556C12.0518 0.500247 12.6181 1.17295 12.6181 1.99962V3.80957L15.2811 0.646904C15.4016 0.503796 15.583 0.460262 15.7402 0.538403C15.8977 0.615429 16 0.798499 16 1.00054V13C16 13.202 15.8972 13.3851 15.7402 13.4621C15.6878 13.488 15.6331 13.4998 15.5789 13.4998ZM1.26286 1.50035C1.03088 1.50035 0.842519 1.72383 0.842519 1.99955V12.0003C0.842519 12.2709 1.03502 12.4995 1.26286 12.4995H11.356C11.588 12.4995 11.7763 12.2761 11.7763 12.0003V8.99884C11.7763 8.72223 11.9645 8.49875 12.1974 8.49875C12.3095 8.49875 12.4303 8.55121 12.5091 8.6452L15.1582 11.7918L15.158 2.20711L12.495 5.36977C12.3745 5.51288 12.1939 5.55641 12.0359 5.47827C11.8784 5.40125 11.7761 5.21818 11.7761 5.01613V1.99904C11.7761 1.72845 11.5837 1.49983 11.3558 1.49983L1.26286 1.50035Z" fill="#434343"/>
</svg>
